<svg xmlns="http://www.w3.org/2000/svg" viewBox="0 0 1472 1467"><path d="M215 745c7.6 14 6.3 26.3 4.3 41.7l-3.3 25.7-1.3 10-1 7a520 520 0 0 0-4 75 552 552 0 0 0 3.8 68c8.6 74.9 26.2 154.4 67.5 218.6l1.6 2.5A322 322 0 0 0 344 1266l1.6 1.3a319 319 0 0 0 59.6 40c56 31.2 122.6 43.4 185.8 47.7l2.4.2c76.2 5.5 154.7-10.7 214.4-60.7q4.7-4.1 9.2-8.5l4-3.5q11.5-9.9 20.7-21.7 2.2-2.8 4.7-5.5A270 270 0 0 0 876 1211l1-1.8c30.9-53.5 45.8-122.2 30.1-182.8A250 250 0 0 0 852 927l-2.4-2.8q-5.9-6.7-12.5-12.5l-4.2-3.6A236 236 0 0 0 746 858l-2.7-.9c-51.4-16.9-113-19-163.3 2.9l-2.4 1a213 213 0 0 0-61.6 42l-2.4 2.3c-37.1 36-67.8 95.4-69 147.8.3 24.4 17.4 45 34 61.4 34.6 33.6 93 72.2 143 72.5 28.2-.7 55.8-9.7 80.4-23l3.2-1.7a103 103 0 0 0 50-58.3 97 97 0 0 0-6.1-71 46 46 0 0 0-29-21.6c-4.2-.9-8.6-.6-13-.6l-2.9-.1a31 31 0 0 0-21.8 8.2l-1.8 1.5q-8.3 6.7-16.3 13.8l-11.5 9.5q-3.8 3-7.3 6.2c-30.7 26.3-30.7 26.3-40.5 26.1a597 597 0 0 1 1.3-47.4A90 90 0 0 1 614 992l1-2.4c9.8-20.9 26.3-39.8 48.3-47.8 27.8-8.3 55.2-2.2 80.5 11a178 178 0 0 1 34.1 24.7 125 125 0 0 1 45 86.3A245 245 0 0 1 770 1225l-1.7 2.1A82 82 0 0 1 753 1241l-2.1 1.6c-36 23.7-89 26.3-130.8 30.2l-4 .4a128 128 0 0 1-43.3-2.6A376 376 0 0 1 474 1236l-2.2-1.1A231 231 0 0 1 428 1205l-2.4-2a210 210 0 0 1-72.2-145.8 240 240 0 0 1 53.9-165.8A292 292 0 0 1 457 843l1.8-1.4a369 369 0 0 1 173.6-69.5l2.6-.3c13.8-1.7 27.3-.6 41 .9q1.3 0 2.6.3c93.7 10.1 189.3 44 251.2 118.6l7 9A311 311 0 0 1 996 1035l.5 2.9c11.8 66.1-1.7 142.2-30.5 202.1l-1.2 2.5A303 303 0 0 1 918 1313l-1.7 2q-14.5 17.2-31.3 32l-1.6 1.4A416 416 0 0 1 810 1400l-2.6 1.5c-72.1 40.5-157.2 68.4-362 46.5a416 416 0 0 1-136.4-65l-1.8-1.3c-23-17.2-45.5-37-63.2-59.7l-4.7-5.6a346 346 0 0 1-32.6-47.6c-40.8-69.6-61.2-153.3-71.9-269.6V981c0-20.5.1-40.7 3.2-61l.5-3.5C147 858 167.1 798.4 206 753l2-2.4c4.7-5.6 4.7-5.6 7-5.6m866-575 3 .4c82.4 11 164 51 229 101.6l3.5 2.7a227 227 0 0 1 39.4 37.7q2.8 3.5 5.8 6.7c15.6 17.3 29 37.2 41.3 56.9l1.4 2.3c55.9 90 82.6 196.2 58.7 301q-3.9 16.6-9.1 32.7l-.8 2.4q-9.3 28.2-23.2 54.6l-3.3 6.5q-9.1 17.6-19.7 34.5l-1.7 2.7A706 706 0 0 1 1379 852l-1.7 2.4q-11.8 16.4-24.8 31.8l-6 7.4q-6.4 7.7-13.4 15-4.4 4.5-8.5 9.4-5.6 6.2-11.5 12l-2 2q-6 6-12.3 11.4-3.5 3-7 6.4a279 279 0 0 1-22.7 18.6 369 369 0 0 1-53.6 35 314 314 0 0 1-114.8 37.9q-10.2 1-20.3.8h-3.4l-8-.1c2.2-13.1 11.6-20.4 22-28q5.9-4 11.9-7.7c24.3-15.5 48-31.8 70.1-50.3l1.5-1.3a516 516 0 0 0 28-24.8 275 275 0 0 0 22.8-23l5.2-5.4a186 186 0 0 0 13.2-14.6 504 504 0 0 0 23.2-28.5 482 482 0 0 0 74-124.8 320 320 0 0 0-4.2-242.8q-4.6-10.5-9.7-20.8l-1.3-2.8A445 445 0 0 0 1289 405l-1.3-1.8a500 500 0 0 0-47-59q-11-12.6-23.7-23.2l-1.6-1.3A271 271 0 0 0 1164 285l-2.3-1.2A259 259 0 0 0 1073 257l-2.4-.3q-12.7-1.2-25.6-1h-2.4c-68.4.1-141.1 25-190.6 73.3l-2.3 2.1A159 159 0 0 0 821 370l-1.1 2a234 234 0 0 0-26.9 80l-.4 2.3a240 240 0 0 0 42.8 173.6 235 235 0 0 0 43 47.9A195 195 0 0 0 947 713l2.4.7c59 17 123.2 5 176.4-23.7q9.6-5.2 18.2-12l2.3-1.8c14.6-12.8 19.4-37 20.6-55.6 2.4-49-4-117.7-38-156.5q-3.3-3.7-6.9-7.1l-2.4-2.4C1092 428.7 1053 411 1015 411a88 88 0 0 0-63.5 30.5 63 63 0 0 0-19 41 42 42 0 0 0 5.7 21c4.9 9 12 17.6 22 20.7 5.4 1.5 11 2.3 16.7 3.2l24.5 3.9c49 7.7 49 7.7 56.6 12.7-.3 3.7-2.1 5.3-4.9 7.7l-1.7 1.3-1.7 1.4q-8.7 7.1-17.7 13.6-5 3.7-9.6 7.5l-8.4 6.5-2.2 1.8c-17.3 13-45 15.7-65.8 12.7a72 72 0 0 1-32-14.5l-2.5-2c-17.6-14.7-26.1-36.3-31.5-58l-.5-2.2c-5.2-21.7-5-49.1.5-70.8l.5-2.1A110 110 0 0 1 909 396l2.7-2.9c24-25.2 57.5-41.8 90.3-52.1l4.2-1.4c31.7-10 67.3-14 97.8 1.4a265 265 0 0 1 33.7 22.2 428 428 0 0 1 27.6 22.6q13.1 11.2 25.5 23.1l6.5 6a126 126 0 0 1 26.2 36.2l3.8 7a315 315 0 0 1 36 107.1 206 206 0 0 1-34.7 150.2 207 207 0 0 1-21.2 24.2l-4.5 4.6c-29.6 31.1-72.6 50.5-114 59l-2.3.5c-15.2 3-30.2 3.7-45.6 3.6h-2.9c-14.9 0-29.4-.7-44.1-3.3l-3-.5A350 350 0 0 1 824 722l-2.3-2-7.5-6.4c-7.5-6-12.7-14-18.2-21.6l-1.7-2.4C752.8 632.1 722.4 567.1 715 496l-.4-3.6A289 289 0 0 1 778 287l1.2-1.6a214 214 0 0 1 34.4-34.5q3.4-2.7 6.6-5.7A298 298 0 0 1 859 217l1.9-1.2c65.6-41.7 143.5-56 220.1-45.8" fill="#3599B0"/><path d="m517 4 3.5.4c59 7.7 123 27.5 168.5 67.6l2.4 2.1L697 79c-1.7 3.9-1.7 3.9-4.2 5.2a67 67 0 0 1-30.2.2L659 84q-11-1.6-22-3.6A631 631 0 0 0 541 70h-3.1C451.5 68.3 359 80.5 281 119l-2.7 1.3a278 278 0 0 0-67 45.5q-3 3-6.4 5.8a157 157 0 0 0-19.6 20.6l-4.6 5.4C132.5 253 113.5 328.7 106 400l-.3 2.6c-1 9.4-1 18.7-1 28v2.9c0 14.3.7 28.3 3.3 42.5l.5 2.8A218 218 0 0 0 152 577l2.2 2.7a226 226 0 0 0 39.6 39.8c53 42 124.5 69.5 192.7 62.2 41.7-5 81.8-22.7 114.5-48.7l1.7-1.3A216 216 0 0 0 545 587l1.4-1.9c23.2-32.6 37.5-74 38.6-114.1v-2.2c1.7-50.4-16.5-94-50.6-130.6-34-34.9-90-65.6-139.5-66.7-27 .1-50 20.4-68.1 38.5a193 193 0 0 0-18.8 21.8 233 233 0 0 0-41 74.2l-.6 2c-8.2 28.7 4 63.6 17.6 89a99 99 0 0 0 56.9 46.9 96 96 0 0 0 66-5.7 40 40 0 0 0 19-25.2c1.5-8 2.5-17.2-1.2-24.7q-2.7-3.8-5.7-7.3l-2.1-2.7-11-13.4-8.2-9.8C369 420.6 369 420.6 369 412a282 282 0 0 1 43.8 2.4c22.2 2.3 22.2 2.3 32 6.7l2 .9c19.6 9 37 22.8 45.5 43 7.2 20 3.3 41.2-5.3 60a139 139 0 0 1-20 30l-2.4 2.8q-6.7 7.8-14.6 14.2l-3 2.5c-29.7 24.5-62.8 31.1-100.7 28.2-44.6-4.8-93-23-126.3-53.7l-2.5-2.3C185 516.1 184.3 454 183 412.1l-.4-6c-1.7-29.2 13.7-63.5 26.3-89.1l1.3-2.6a239 239 0 0 1 44.2-63A194 194 0 0 1 299 217l1.8-1a191 191 0 0 1 89.2-25h2.3c39.1-1 77.6 6.5 112.7 24l2.5 1.2a228 228 0 0 1 54.9 38.4q3 3 6.4 5.6 4.5 4 8.3 8.6l6 6.7c41.3 45.8 63.8 107.6 70.8 168l.4 3.4c1.5 14.6-.4 28.8-2.9 43.1q0 1.2-.4 2.3C638.8 564 608.6 639.7 551 687l-2.7 2.4a255 255 0 0 1-51 34.7A292 292 0 0 1 406 755l-2.7.5c-77.1 15-171-7.4-235.4-50.9L164 702l-1.9-1.3q-13-9.1-25.1-19.7l-2.2-2-5.8-5-2.4-2C93.8 642.6 69 605.8 49 567l-1.3-2.6C4.7 480-7.7 391 20.9 271l4.1-12 1-2.8a355 355 0 0 1 76.3-127.7q11-12.6 23.7-23.5l2.8-2.4C198.5 41.7 292.8 15.9 392 4l2.2-.2c40.5-4.7 82.3-5 122.8.2" fill="#3599B0"/></svg>