<svg xmlns="http://www.w3.org/2000/svg" viewBox="0 0 1534 1500"><path d="M1035.2 2.7h2.5c7 0 12.2 2 18.1 5.5l2.9 1.7A234 234 0 0 1 1126 68l1.3 1.7c18 23.6 30.4 50 41.2 77.5l3.4 8.5L1183 184l.8 2 22.6 58.6A12743 12743 0 0 1 1266 404l1 2.8c15.6 42.4 30.2 85 44.7 127.7a3579 3579 0 0 0 28 80.1l2.7 7.9a4326 4326 0 0 0 33.4 92.7 1886 1886 0 0 0 65 163.2 493 493 0 0 1 19 45.7c33.6 93.4 54.6 191.9 57.1 546.8l-1.9 7.1-2.4.3-35.2 5q-27.2 3.6-54.2 8.7a212 212 0 0 1-46.9 4.1l-14.3-.1h-2.3l-35.8-.7h-2.9a30016 30016 0 0 1-422.3-13.9l-2.8-.1-53.6-2a191 191 0 0 1-15.3-1.3q-1.4-37.8-2.2-75.6l-1.5-67.3A8206 8206 0 0 1 821 1066l36.4-5.5a3578 3578 0 0 1 67.1-9.4l2.2-.3 6.3-.8 2.2-.3a210 210 0 0 1 23.7-1l55.6-.8a14876 14876 0 0 1 262.1-1h20a551 551 0 0 1 28.5.6c4 .2 7.4.6 10.9 2.5 13.3 20 10.3 56 10 79a990 990 0 0 1-38 1.6 4260 4260 0 0 1-119.4 1h-2.2c-7.1-.2-14-.5-20.9-2-7.7-1.7-15.7-1.7-23.6-1.7h-44.1c-50.2 0-100.1.8-150.2 3.6l-3.3.2-11.7.7c-6.7.4-12.9 1.5-19.6 2.6l-1 72 20 1 15.3 1 10.1.8 86.9 6.4c13.7 1 27.4 1 41 1l49.9.4h2.1l98.3 1 51 .9h2.3l26 .9h2.3c11.4.5 22.4 1 33.4 4.1 11.8 3.4 11.8 3.4 34.4 4.5v69a9319 9319 0 0 1-128.2 4.3 4911 4911 0 0 1-177 3c-8.2 0-16.2 0-24.2-1.8-8.7-1.7-17.7-1.7-26.5-1.7h-18.5c-32.8 0-65.7 1.1-98.6 2.2v77l278.4 9.3c23.1.9 46.2.8 69.4.8h17.3l146.9-.1 5.6-14.2q4.2-10.4 7.1-21.1l.9-3.1a383 383 0 0 0 11.4-76.6v-3c1.1-44.3-5.2-87.4-17-130l-.7-2.5q-14.2-50.7-31.3-100.5l-1-2.7a1487 1487 0 0 0-50-128.3c-9.7-21.9-17.7-44.4-25.8-67l-3.2-8.8a2650 2650 0 0 1-88.8-290.3 1748 1748 0 0 0-42-147.5q-21-64.2-47.1-126.4l-.8-2c-19-50.7-19-50.7-49.6-94.3a41 41 0 0 1-6.3-8.7l-1-1.8-2.1-3.7q-3-4.8-5.7-9.8l-1.2-2a891 891 0 0 0-24-39l-1.4-2.4-1.4-2-1.2-1.9c-7-7.4-34.8-3.9-44.6-4.2q-63.9-1.4-127.8-1.7h-3.8a22800 22800 0 0 0-223.8-.9h-85.5c-15.8-.2-30 .6-44.2 8.3l-2 1A107 107 0 0 0 479 135l-1.2 1.6a231 231 0 0 0-33.4 67.2l-5.5 16-1.2 3.5-14.6 41.4-.8 2a5648 5648 0 0 1-39.5 106.1q-16.6 43.8-33.7 87.4l-4.8 12.1-11.5 29.6-1.3 3.2-6.4 16.2c-46 102.7-46 102.7-65 211.3.1 5.9-.4 11.2-1.8 17l-.5 2.3q-2.9 11.8-7 23.1l-.8 2.2a1288 1288 0 0 1-40.7 99.6l-4.6 10.4-1.4 3.3q-3.6 8-7.4 15.8a233 233 0 0 0-16.3 46.7 340 340 0 0 1-12.8 40.2c-18.2 46.6-29 97.7-39.6 146.6l-.6 2.8a355 355 0 0 0-8.7 60.2l-.2 2.4q-1.3 14.2-2.9 28.6c-3.4 32-6 64-6.1 96.3v2.7c-.3 33.2-.3 33.2 12.5 63 6 4.6 13.6 5.8 21 6.8l2.7.3q11.8 1.5 23.5 2.2l3.4.3 12.2.6 2.9.1a1606 1606 0 0 0 81.4 1q47.4.1 94.7-1l2.6-.1 25.8-.7h2.2l13.3-.6c25-1 50.2-.8 75.4-.8h17.8l169.9.1.2-2.2.3-3 .2-3a186 186 0 0 1 2.7-18l.5-2.8c6-35.8 6-35.8 7.1-72a237 237 0 0 0-48.9-3.2h-19.8a3295 3295 0 0 0-133.3 3l-12.4.6-42.4 1.7h-3.3a4370 4370 0 0 1-175 4.2c-16.4 0-32.7 0-49-1.2l-3.1-.2a46 46 0 0 1-13.8-2.9c-4.4-58.5-4.4-58.5-6-86a3334 3334 0 0 1 72.8.3h2.1a7934 7934 0 0 0 167.8.8h9q22 .1 44.1-.5l3.6-.2q12.8-.5 25.4-1.9a409 409 0 0 1 47-1.7h24q52.5 0 105.2 2.2l.2-51.5c.1-12.9-1-25.2-5.2-37.5a178 178 0 0 0-38-4 1089 1089 0 0 0-60.7 1q-16.7.5-33.2 1.5-32.3 2-64.6 1.7h-13.7A13619 13619 0 0 1 282 1128h-2.6a776 776 0 0 1-53.4-3c-.8-2.3-1.1-3.6-.4-6l1-2 1.2-2.2 1.3-2.5a170 170 0 0 0 9.1-21.8c2-6 3-11.3 3.1-17.6v-2l.7-20.9 63.5-1a9992 9992 0 0 1 212.4-1.1q21.7-.1 43.6.5l3.1.2q9.2.3 18.2 1.4c12.3 1.4 24.7 1.3 37 1.3h6.2a2863 2863 0 0 0 118.6-3q13.2-.4 26.4-.3v1.7c-3 89.1-3 89.1-5.2 178.2l-.2 9.3c-.8 40.3-.8 40.3-.2 80.5v2.8q.3 6 1.6 12a86 86 0 0 1 1.3 21.2v15.3c-.2 81.3-.2 81.3-11.3 108-3.6 2.4-5.6 2.4-10 2.6l-2 .1-12 .6a1744 1744 0 0 1-54 1.8 11849 11849 0 0 1-178.2 3 15528 15528 0 0 1-264 1H136.5a728 728 0 0 1-38.3-.7q-7-.3-13.7-2c-12.3-2.4-25.6-1.7-38.1-1.9l-7.4-.1h-2.3c-3.7-.1-5.4-.3-8.6-2.4-.7-2.4-.7-2.4-1.3-5.6l-.6-3.8-.7-4.2-.4-2.3c-33-200.4-33-200.4-5.6-315 23.6-58.2 42-118.8 60.9-178.6l10.7-33 15.6-48.1c40.2-126.1 40.2-126.1 55-166.8l1-2.4c5.1-14.3 5.1-14.3 9-20.7a307 307 0 0 0 21.2-45A3123 3123 0 0 0 219 588a15581 15581 0 0 0 59.3-154L327 305.3c16.3-43 16.3-43 32.3-86q5.2-14.3 10.6-28.3a549 549 0 0 0 21.6-64.7c8.8-35.5 29.3-76.3 60.9-96.8a104 104 0 0 1 54.3-15.7h3l19 .5q30 1.2 59.6 1.3h3a4649 4649 0 0 0 155.2-.7 4558 4558 0 0 0 176.2-6.7l66.7-3.6c32.9-1.8 32.9-1.8 45.9-1.9" fill="#1E6910"/><path d="M798.1 233c72.8-2.3 143.2 23 199.9 68l2.8 2.2a274 274 0 0 1 44.1 43.2q3.3 4.2 6.9 8.2A313 313 0 0 1 1119 495l.4 2c13.6 76.1-26.2 170.3-55.4 239l-1.4 3.4-4 8.8-1 2.5A21 21 0 0 1 1046 762l-2.3 1.2A438 438 0 0 1 762 805.7q-11.9-4-23-9.7l-2.8-1.4a278 278 0 0 1-73.7-51C634 717 613.8 678.4 612 639.1c-1.8-58.4 16.8-120.3 56.9-163.8l2.2-2.3 2.1-2.3c9.6-10 20.9-17.9 32.9-24.7l1.7-1c43.6-24.3 107.4-29.5 155.2-16.3a129 129 0 0 1 52 29.3c29 26.9 37.5 71 39 109 .6 33.2-6.5 66-29.8 90.9a59 59 0 0 1-45.5 18.4h-13.3c-36-.1-74-6-101.4-31.3a53 53 0 0 1-16.1-35.8q.4-5.3 1.7-10.5l.6-2.2c1.8-7 4.5-17.2 10.8-21.5 6.2-.8 11.1 1.2 16.8 3.3l6.3 2.2 3.4 1.3 20.9 7q21.7 6.8 43.6 13.4l3.4 1 9.7 3 3 .8 2.6.8 2.4.7c1.9.6 1.9.6 3.9.5 11.3-57.5 11.3-57.5 2-113-5-5.5-10.5-6.6-17.6-7.2l-11.4-.1q-13.6.2-27 3.3l-2.3.5a158 158 0 0 0-76.7 41.3c-22.6 20.8-32.5 52.8-34 82.7-1 33 7.7 64.6 30 89.5l1.7 2c27.4 29 72 40.5 110.6 42.1 51.2 1.5 100.4-14 138-49.5l2.7-2.6 2-1.9a166 166 0 0 0 38-59.1c9.5-23.3 14.3-48 17.1-73l.3-2.8c5.4-54.6-3.3-115.2-38.7-159l-2.6-3.2-1.4-1.7c-42.9-52.7-111.5-75.1-177-82q-9.3-1-18.6-1.3h-2.3c-71.8-2.4-146 32.7-198.7 80l-1.6 1.4a252 252 0 0 0-33.9 36c-44.3 54.3-56.7 119.2-57.4 187.4l-.3 13c-1 62.1 21.6 119 63.4 164.5 5.2 5.4 11 10 16.8 14.7l2.4 2c11.9 9.8 25 17.7 38.6 25l1.9 1a309 309 0 0 0 67.7 25.8c47 14 108.1 10.6 156.4 4.2l4-.5a320 320 0 0 0 113.4-34.6q4.2-2.2 8.6-3.9c-16 54.4-16 54.4-27.6 61.6-5.5 2.3-11.2 3-17 3.7q-7.7 1.3-15.1 3.7l-2.9.8-6 1.8A890 890 0 0 1 815 926l-2.1.3a268 268 0 0 1-91.9.7l-3.2-.6q-51-9.9-97.8-32.4l-2.6-1.2A307 307 0 0 1 544 845l-1.7-1.5a202 202 0 0 1-18-17.8q-3.5-4-7.1-7.8a288 288 0 0 1-15-17.3l-6.6-7.5q-6.5-7.1-12.2-15l-8.5-10.6a69 69 0 0 1-11.9-24.7c-26.8-84.2-30.2-182.9 16.1-314.6a271 271 0 0 1 37.3-53.2q6-6.8 10.7-14.5c7.8-12.3 16.8-23 26.9-33.5l1.9-2a209 209 0 0 1 31.6-27.7c60.6-46.2 136-61.9 210.6-64.4" fill="#1E6910"/></svg>