<svg xmlns="http://www.w3.org/2000/svg" viewBox="0 0 1454 1650"><path d="M737 1a74 74 0 0 1 12.5 6.5l2.13 1.34A214 214 0 0 1 771 23l2.83 2.24a321 321 0 0 1 17.4 15.2q3.32 3.08 6.77 6c8.29 7.2 15.9 15.19 23 23.56l2.67 3.04c22.63 25.84 41.56 55.07 56.4 86.04q1.4 2.9 2.84 5.77C916.95 234.08 934.28 327.45 919 404l-.57 3.03c-2.7 14.36-6.67 28.16-11.43 41.97l-.7 2.1a202 202 0 0 1-9.44 22.6C874.54 520.42 864.84 572.85 859 624l-.25 2.22C852.49 682.03 852.38 742.18 870 796l.77 2.4c5.77 17.63 13.89 37.26 27.23 50.6l.12-2.45c4.7-92.01 31.78-181.2 91.88-282.55l1.33-2.05c18.32-28.04 39.13-54.2 61.67-78.95l2.2-2.47a554 554 0 0 1 20.49-21.34l1.5-1.52a278 278 0 0 1 16.06-15.17c2.59-2.22 5.07-4.55 7.56-6.87q6.88-6.35 14.17-12.2 3.32-2.67 6.6-5.39c20.13-16.62 41.54-31.8 63.42-46.04l2.08-1.36c26.9-17.46 55.15-33.1 83.98-47.14l2.92-1.44 2.68-1.28 2.33-1.12c2.01-.66 2.01-.66 5.01.34a13828 13828 0 0 1 6.3 33.91 4136 4136 0 0 1 3.69 19.9l.6 3.2c.73 5.26.81 9.02-1.83 13.7l-1.47 2.67-1.6 2.87c-42.16 78.38-51.22 172.47-24.01 313.02q1.72 5.63 3.52 11.23 1.08 3.4 2.12 6.8c8.05 25.83 19.52 50.58 31.68 74.7l1.59 3.17c9.22 18.28 19.68 35.63 30.66 52.9l1.97 3.1A354 354 0 0 0 1351 881a669 669 0 0 1 50 79l1.83 3.36a391 391 0 0 1 13.95 28.4c16.77 37.42 29 77.48 34.22 118.24l.31 2.26c11 82.3-12.74 167.6-62.31 233.74a385 385 0 0 1-22 26l-4.44 5a235 235 0 0 1-22.56 22l-2.72 2.38c-23.8 20.73-50.87 38.02-79.3 51.67l-6.02 2.94c-11.05 5.39-22.42 9.78-33.96 14.01l-1-2 1.4-1.18c5.81-5 11.25-10.32 16.66-15.76l2.6-2.59c5-5 9.76-10.1 14.34-15.47l2.85-3.25a448 448 0 0 0 20.56-25.64q2.29-3.04 4.62-6.04c18.74-24.4 34.56-51.36 47.97-79.02q1.53-3.14 3.1-6.25c40.56-81.85 57.4-190.58 28.31-278.73-8.94-25.88-22.6-47.67-39.41-69.07l-6.94-8.87-1.76-2.26a939 939 0 0 1-17.6-23.54q-2.46-3.37-4.94-6.72c-53.3-72.48-90.34-156.03-112.76-290.61l-.25-2.2c-6.72-58.68-4.02-119.44 4.25-177.8a279 279 0 0 0-17.06 15.94l-2.32 2.3a238 238 0 0 0-12 12.9c-2.43 2.8-4.97 5.48-7.5 8.17a269 269 0 0 0-12.86 14.9q-3.01 3.7-6.14 7.32a444 444 0 0 0-18.14 22.84q-2.3 3.06-4.63 6.1a524 524 0 0 0-20.01 28.3l-4.6 6.9A576 576 0 0 0 1057 607l-1.67 2.84C1023.9 663.55 1001.38 721.3 992 783l-.5 3.21c-2.43 16.26-2.76 32.38-2.75 48.79v3.04q.01 8.34.2 16.68.06 2.92.09 5.86c.31 8.06 3.19 14.27 6.77 21.42a1282 1282 0 0 1 4.5 9.39c29.64 61.56 48.92 129.28 59.69 196.61l.62 3.87a642 642 0 0 1 7.45 87.48c2.07 77.76-27.08 154.04-79.07 211.65l-1.64 1.83c-20.39 22.6-43.7 41.82-69.36 58.17l-1.74 1.11c-55.83 35.26-120.7 53.97-186.26 58.89l-2.24.18c-65.2 4.9-131.5-5.1-190.76-33.18l-2.58-1.21c-27.51-13.01-53.55-29.84-75.94-50.52a293 293 0 0 0-6.27-5.55 244 244 0 0 1-12.15-11.47l-2.12-2.12a171 171 0 0 1-12.89-14.52c-2.18-2.78-4.49-5.43-6.8-8.11-10.4-12.48-19.28-26.36-27.25-40.5l-1.2-2.12c-10.2-18.11-18.29-37.54-22.8-57.88l-.52-2.32c-1.79-9.14-1.79-18.2-1.82-27.48q0-4.54-.05-9.07-.07-9.72-.11-19.44c-.2-40.61-.66-81.27-4.25-121.75l-.25-2.9c-7.6-87.9-23.71-185.86-86-273.04l-2.07-2.66a291 291 0 0 0-14-16.09l-1.7-1.86C243.3 793.59 227.56 782.04 211 773l-1.87-1.03C192.41 762.92 170.36 752 151 752l1.32 3.75c21.34 61.63 23.08 124.88 4.56 187.38l-1.9 6.48c-8 27.25-16.44 54.37-24.8 81.52-24.7 79.07-24.7 79.07-44.87 159.37q-.22 1.07-.47 2.16A467 467 0 0 0 82 1207l-.43 2.27c-2.36 12.9-3.01 25.49-2.9 38.6q.02 4.6 0 9.2c.07 47.64 12.45 79.7 42.78 116.07q3.05 3.67 6.05 7.36 5.58 6.82 11.19 13.63l1.8 2.18q4.56 5.55 9.13 11.07 10.15 12.22 19.92 24.74 2.4 3.08 4.83 6.15C203 1474.64 203 1474.64 203 1482c-33.79-.8-66.2-9.07-96-25l-1.87-1c-46.43-24.9-75.98-68.93-91.14-118.39C7.41 1315 3.7 1291.48 2 1268l-.17-2.3c-5.8-80.97 17.4-154.06 56.42-224.08 15.83-28.5 29.12-58.4 30.19-91.37.22-6.43.49-12.84 1.07-19.25 7.94-88.56-4.07-182.64-45.51-262l-1-1.95a237 237 0 0 0-12.75-22.07C29 643 29 643 29 642c73.66-1.63 154.54 34.12 217 71l5 2.91c31.6 18.51 61.11 40.27 89.18 63.74 8.44 7.63 8.44 7.63 18.7 11.79 2.33-.28 2.33-.28 4.12-2.44 1.13-3.22 1.1-6.25 1.06-9.64l-.02-3.4-.04-3.65c-.26-65.22 13.02-127.18 42.99-185.34l2.04-4C423.17 555.06 441.6 529.65 462 506l1.93-2.24q2.52-2.9 5.07-5.76l1.86-2.11a425 425 0 0 1 18.06-18.94l4.93-4.94A278 278 0 0 1 511 456l3.35-2.92c14-12.13 28.72-23.14 43.65-34.08 12.96-9.5 25.5-19.47 37.26-30.44q3.95-3.68 7.99-7.25a196 196 0 0 0 17.93-18.21q1.86-2.14 3.8-4.23c6.68-7.18 12.56-14.9 18.43-22.75l4.38-5.78C660.9 312.97 671.94 294.28 682 275l1.15-2.2q3.54-6.84 6.85-13.8l1.06-2.24C697.5 243.13 702.92 229.2 708 215c.5-1.4.5-1.4 1.03-2.82 12.2-33.8 19.5-69.5 24.22-105.05l.46-3.45q.71-5.83 1.29-11.68l.27-2.65c1.8-18.44 1.98-36.76 1.87-55.27l-.04-11.24Q737.07 11.92 737 1m66 145-1.15 3.15c-8.67 23.57-17.72 46.87-27.85 69.85l-.88 2c-13.35 30.39-27.63 60.58-44.47 89.2q-2.7 4.6-5.37 9.24C705.83 349.5 686.3 378.33 664 405l-1.32 1.58c-16.27 19.44-33.69 37.6-53.86 53.01a377 377 0 0 0-27.08 22.85q-3.95 3.68-7.99 7.25a196 196 0 0 0-17.85 18.13q-3.26 3.72-6.65 7.3a283 283 0 0 0-14.87 18.1 370 370 0 0 1-4.03 5.08c-59.95 74.58-104.72 174.86-104.03 298.26 2.2 18.4 6.69 36.8 15.03 53.43.8 2.46.57 3.61-.35 6.01a142 142 0 0 1-4.5 5.69c-13.6 17.07-20.71 36.37-19.5 58.31 2.63 17.45 12.67 29.12 25 41 5.26-1.66 9.33-4.93 13.75-8.12 11.81-8.4 24-16.16 36.25-23.88l2.75-1.75c18.54-11.74 37.55-22.86 57.36-32.34q3-1.46 6-2.96c12.8-6.29 25.9-11.06 39.89-13.95l-2.44-4.5-1.67-3.08a274 274 0 0 0-3.94-6.9c-14.46-24.6-23.62-51.55-28.95-79.52l-.5-2.59c-4.67-25.44-4.78-54.07.5-79.41l.54-2.8C572.57 682.3 598.48 620.78 633 574l2.69-3.68q1.95-2.67 3.95-5.35c7.01-9.5 13.66-19.25 20.36-28.97l1.8-2.6c8.6-12.5 17.03-25.1 25.45-37.71l1.52-2.28A2308 2308 0 0 0 710 461l1.9-2.95A1248 1248 0 0 0 753 390l1.46-2.61c22.87-40.86 22.87-40.86 36.54-85.39a203 203 0 0 1 4 33l.13 3.64c1.17 70.31-26.06 135-68.86 189.58-16.5 21.1-32 43.5-45.27 66.78l-1.14 1.96c-31.82 54.89-57.17 128.52-40.54 192.5L640 792l.73 2.83c8.41 32.19 20.91 68.05 42.46 93.98l2.29 2.77c8.14 6.87 23.68 7.5 33.92 9.31 66.2 11.85 131.56 37.02 171.35 94A204 204 0 0 1 917 1050l.7 2.28c5.48 17.83 8.73 36.15 10.3 54.72l.18 2.03c5.55 67.27-6.17 143.75-50.7 196.98q-3.2 3.54-6.48 6.99l-3.44 4.06c-13.36 15.22-30.83 26.49-48.56 35.94l-2.26 1.2c-51.35 26.93-107.97 30.75-162.78 13.75-32.44-10.38-61.97-24.81-87.96-46.95l-2.43-2.06c-22.8-19.71-37.92-47.8-44.57-76.94l-.5-2.03c-5.66-23.9-4.52-53.08.5-76.97l.5-2.42c5.16-23.7 15.13-44.85 30.5-63.58l2.03-2.5c28.37-33.47 75.88-46.19 117.83-49.84q6.07-.44 12.14-.66l2.28-.09C722.5 1042.66 758 1058.83 787 1083l3.06 2.31c12.89 11.8 23.43 28 24.94 45.69.52 24.64-10.3 49.62-25 69l-1.88 2.51c-18.68 24.09-43.86 45.2-74.89 50.17-19.06 1.87-36.9-.27-52.9-11.56-12.04-9.96-17.7-25.27-19.18-40.43L641 1199l3.07.93c10.8 3.07 22.13 3.42 33.28 3.39q3.12 0 6.25.04c18.72.09 38.14-3.32 52.4-16.36 8.82-9.79 13.43-21.38 13.21-34.57-.85-9.84-5.34-16.96-12.4-23.62-15.07-12.16-37.09-13.23-55.56-11.38-29.16 3.48-55.94 16.15-75.25 38.57-11.52 15.23-18.36 32.84-19 52l-.12 2.96c-.49 23.28 4.38 47.88 20.56 65.48 1.82 1.9 3.68 3.72 5.56 5.56l2.21 2.24c19.16 18.34 47.35 24.53 72.79 27.76l3.17.4c3.28.33 6.53.49 9.83.6l2.8.1c14.26.44 27.52.18 41.2-4.1l2.23-.68c26.68-8.4 50.27-23.52 70.77-42.32l1.56-1.42A152 152 0 0 0 860 1203l.68-1.92c3.56-10.2 5.78-20.4 7.32-31.08l.4-2.78c5.7-49.33-9.06-103.4-39.57-142.56A257 257 0 0 0 814 1008l-2.02-2.18c-28.27-29.64-71.67-45.78-112-47.04-69.04-1.37-137.2 29.35-186.64 76.7A202 202 0 0 0 494 1057l-2.2 2.79A244 244 0 0 0 475 1085l-1.09 1.84c-29.8 51-29.66 113.3-15.46 169.1 8.71 32.54 23.15 63.9 44.55 90.06l2.44 3.05A217 217 0 0 0 549 1390l1.86 1.34c30.93 22.2 67.71 34.34 105.14 39.66l2.33.35c28.74 4.27 58.97 2.26 87.67-1.35l3.29-.4C812 1421.52 874.1 1396.1 920 1352l1.8-1.72c8.36-8.01 16.05-16.24 22.93-25.56q1.9-2.55 3.82-5.08c6.26-8.37 11.4-17.22 16.29-26.45q1.61-3.01 3.25-6.01c38.65-72.24 33.4-169.79 10.71-246.3L977 1035l-.8-2.63c-8-25.71-20.46-50.03-38.2-70.37l-1.95-2.35c-8.57-10.12-19.14-17.56-30.6-24.1a46 46 0 0 1-6.83-5.36l-2.6-2.4-1.44-1.33-5.32-4.88c-11.72-10.78-11.72-10.78-16.67-16.74a99 99 0 0 0-5.97-6.15 146 146 0 0 1-11.39-12.96 154 154 0 0 0-6.48-7.36c-6.42-7.05-12.05-14.74-17.75-22.37l-1.5-2a424 424 0 0 1-28.5-43l-1.38-2.4c-16.75-29.3-29.25-60.4-35.62-93.6l-.7-3.56c-8.2-48.1 1.85-98.6 29.84-138.47 2.9-4.07 5.94-8.03 9.02-11.98 26.02-33.55 39.1-68.6 42.84-110.99l.21-2.4c.44-5.2.67-10.39.79-15.6l.07-2.78c1.72-88.3-2.95-202.29-42.07-283.22z" fill="#C40009"/><path d="M1114 612h2l.05 1.8c2.7 97.53 11.44 195.27 68.95 390.2l1.27 2.82c8.86 19.58 19.6 37.53 32.04 55.02 38.89 54.92 38.66 129.27 27.8 193-7.7 43.96-23.11 85.4-43.11 125.16l-1.45 2.92c-18.06 36.27-42.25 69.26-69.55 99.08l-1.35 1.48c-9.42 10.39-19 20.78-29.72 29.86-2.23 1.92-4.39 3.92-6.56 5.91a291 291 0 0 1-17.46 14.27q-2.88 2.24-5.74 4.5c-75.26 59.1-168.72 92.69-483.66 105.42-92.36-11.14-186.79-37.58-260.51-96.44l-2.78-2.2c-16.47-13.2-32.27-28.12-45.22-44.8l-2.57-3.16c-46.99-57.98-68.63-131.77-68.68-205.71v-2.79c.05-45.06 8.73-88.15 21.45-131.17 23.99-81.3 26.96-169.1-1.32-305.3C227 849 227 849 227 846c4.62 1.45 7.73 4.1 11.19 7.38l1.73 1.62c38.92 37.27 53 94.32 59.08 146l.36 2.94c4.38 37.53 2.58 76.56-1.36 114.06l-.25 2.38a846 846 0 0 1-18.78 108.2c-3.85 16.14-5.36 31.83-5.28 48.42v2.43c.26 59.16 20.55 116.64 59.31 161.57l1.92 2.26c10.94 12.51 22.8 24.7 36.08 34.74l3.63 2.81c59.88 46.1 134.25 69.07 207.37 84.19l3.6.75c20.3 4.16 40.82 6.93 61.4 9.25l2.3.26c44.32 4.95 90.4 5.05 134.7-.26l2.15-.25c83.27-9.71 167.23-38.44 231.08-94.25q2.06-1.74 4.18-3.42a215 215 0 0 0 18.86-17.15l4.48-4.5a265 265 0 0 0 16.8-18.26c18.28-21.82 33.65-45.3 47.45-70.17l1.3-2.3c32.3-57.79 46-124.37 45.83-190.23v-7.8c.02-14.53-.24-27.83-5.13-41.67l-1.5-4.37-3.47-9.97c-20.12-57.73-36.44-117.42-47.03-177.66l-.45-2.57c-5.11-29-8.87-58.1-11.55-87.43l-.2-2.27c-3.35-36.83-3.58-74.93.2-111.73l.4-3.84c4.05-38.9 12.41-76.67 26.6-113.16" fill="#C40009"/></svg>