<svg xmlns="http://www.w3.org/2000/svg" viewBox="0 0 1628 1600"><path d="M856.6-.2h3.2c91.8.3 184.3 15.7 515.8 176.8l1.7 1.4a954 954 0 0 1 45 41.3l2.3 2.2q6.1 6.1 11.8 12.7l7 7.6a275 275 0 0 1 17.6 20.8 594 594 0 0 1 24 31.4l1.7 2.4q21.6 30.1 39.3 62.6 1 1.4 1.7 3.2A738 738 0 0 1 1591 518l.6 2c24.8 87.4 35.6 179-59.4 712.8a597 597 0 0 1-67.8 98.4l-6.7 8.1c-5.5 6.9-11.7 13.2-17.8 19.7l-5.4 5.8a396 396 0 0 1-30 29.5 305 305 0 0 1-17.7 15.4l-7.2 6c-9.1 8-18.9 15.1-28.6 22.3l-2.3 1.7a662 662 0 0 1-81.7 51.3l-2.6 1.4a836 836 0 0 1-117.6 51.4c-82.5 29-169.6 46-267.2 54l-2.4.1-18.4 1.2c-17.6 1.2-35.2 1-52.8 1l-28.5.1c-14.9.1-29-1.5-43.5-4.6a617 617 0 0 0-41.3-6.4l-21.7-2.9-2.2-.3c-132-17.8-132-17.8-192.5-41.1l-13.7-5.2-11-4q-25.2-9.5-49.6-20.7l-2.9-1.3q-20.5-9.5-40.1-20.7l-2.7-1.5Q336 1480 316 1467l-1.9-1.2a647 647 0 0 1-73.5-55.6 692 692 0 0 1-42.2-39.6l-2-2a328 328 0 0 1-23.8-25.4 317 317 0 0 1-16.6-19.8 470 470 0 0 1-26-34.5c-50-69.4-84.4-149.1-116.9-614.2a860 860 0 0 1 34.1-137.5A702 702 0 0 1 83 449.7 664 664 0 0 1 145 345l1.8-2.5a582 582 0 0 1 23.8-30.8l6-7.3a692 692 0 0 1 53.3-57.5l4.4-4.3 2-2q5.8-5.8 12-11.1l6.5-5.9a317 317 0 0 1 20.1-16.9 591 591 0 0 1 31.2-24.3 868 868 0 0 1 122-74C501 70.8 580.2 45.1 809.2 2.3l5.4-.6c14-1.6 27.8-2 41.9-2M622 98c3.6 2.4 5.7 2.4 9.9 2.8l4.3.4 2.4.3C691 106.5 742 121 790 143l3.5 1.6A551 551 0 0 1 899 209l1.8 1.4a530 530 0 0 1 38.5 32.6 443 443 0 0 1 21.6 20.7q8.2 8 15.2 17.3l1.9 2c3.8 0 5.4-1.2 8.7-3.1l1.7-1 9.5-5.7 29.4-17.7 26.7-16a2714 2714 0 0 0 54.3-33.2l6.3-4.1c6.8-4.3 6.8-4.3 11.3-4q4.1 1 8.1 2.8l2.3.9 8.6 3.7a246 246 0 0 1 68.4 48.6A205 205 0 0 1 1247 299l2 3.4a137 137 0 0 1 15 102.4 111 111 0 0 1-52.9 65.2 91 91 0 0 1-69.1 7.4 78 78 0 0 1-45.8-40.9c-7.4-15.6-10.7-29.6-5.2-46.5 9.6-24.2 27.4-43.4 45.4-61.6l2.1-2.1 2-2 1.8-1.8a22 22 0 0 1 5.7-3.5l.3 3.3q1.2 7.9 3.2 15.6l.7 3.2 11.6 48.5 10 42 .6 2.4c.6 2.3.6 2.3 2.6 5 18-18.6 33.3-44.3 34.3-70.7A92 92 0 0 0 1188 312l-2.3-3c-20.8-22.7-52.2-34.2-82.3-36.2a129 129 0 0 0-89 30.2l-5 4-2.6 2-2.3 1.7c-2.8 4.4-.7 10.4.3 15.4l1 4.2.5 2.3 1.7 7.5.6 2.6a651 651 0 0 0 45.8 134.2l1.8 3.6q2.3 4.8 4.8 9.5l1.3 2.6c4 7.1 9.6 9.2 17 12l3.6 1.4c47.6 18 100.3 29.9 148.6 8.1 35.5-16.6 58.2-49.6 71.4-85.4 19-53.7 8.6-109.3-15-160A252 252 0 0 0 1254 216l-1.3-1.5a233 233 0 0 0-41.6-40.6C1143.8 121.4 1059.9 98.5 898 80l-3.4-.2C803.4 75.4 711.9 83.5 622 98M339 251l-2.3 1.6a686 686 0 0 0-50.8 38.9 351 351 0 0 0-21.8 18.9Q256 317.5 248 325l-1.8 1.7a871 871 0 0 0-24.3 23.2l-2.3 2.4q-6.3 6.2-12 13l-5.1 5.2q-4.5 4.5-8.6 9.3l-6.3 7q-6.2 7.1-12.2 14.5l-9 10.9-6.4 7.8c3.7 1.2 4.5.6 8-1l3.1-1.3 3.5-1.4A445 445 0 0 1 337 381h2.2c78-2.3 161.5 21.9 221 73.6q5.2 4.4 10.8 8.4l1.9-3.3c5-9 10.3-17 17.1-24.7l2.1-2.5C623 396.5 670.8 381 716 374l2.5-.4c24.1-3.7 52.7-4.4 76.5 1.4l2.6.6c27 6.7 50 19.2 70.4 38.4l2.2 2c29.4 27.8 49.5 74.8 51 115 .6 37.7-2.4 78.7-29.8 107.6-23.2 23-56.5 31-88.3 31.7-22.4-.3-44.1-6.1-61.1-21.3l-2.3-2c-20.5-19.1-30.4-50.9-31.9-78.2q-.1-9.4.2-18.8l2.5-1.2 41-19.3c29.2-13.8 29.2-13.8 42.8-19.9l2.1-.9 1.6-.7-.4 3.6a1640 1640 0 0 0-4.7 55l-3.5 43q-.6 7.2-.4 14.4a57 57 0 0 0 10.5-5.3l3.2-2 65.6-40.7 2.4-1.5 4.5-2.5c2-1.2 3.4-2.1 4.8-4 1.3-6.1-.2-12.7-1.7-18.7l-.5-2.3a155 155 0 0 0-27-58.6A128 128 0 0 0 757 435l-2.9-.2a156 156 0 0 0-119.7 50.7c-9.9 9.1-19 22.2-24.4 34.5 0 3.4 2 6.1 3.7 9 19 33.8 30 73.2 42.5 109.7l1.1 3.4q6 17.4 11.4 35.1l1 3 3.9 13.3c2.5 8.4 4.6 14.8 12.4 19.5l1.8 1.2q2.5 1.8 5.2 3.3l2 1.1c37 21.4 80.3 23 121.1 12.1a236 236 0 0 0 100.4-58A209 209 0 0 0 979 569c4.2-16.6 5.5-33 5.4-50.1V516c-.2-33.6-6-66-16.4-98l-.9-2.7c-13-39.8-35.4-78-63.8-108.8l-5.6-6.3a239 239 0 0 0-11.6-12.3l-2-2q-6.8-6.7-14.1-12.9l-1.9-1.6C797.8 211.4 705 178.8 339 251m1023 18 .4 3.5c8.6 80.5 10.2 170.9-43 237.6q-5.5 6.6-11.4 12.9l-1.4 1.5c-34.2 35.9-82 54.7-130.6 60.5l-3.1.4c-37.3 4-77.1-3.2-110.9-19.3-3.8-2-3.8-2-8-1.1q-1.2 4-2 8a193 193 0 0 1-31 65l-1.1 1.6a486 486 0 0 1-55.3 64.9l-2 2q-5.6 5.6-11.8 11l-6.6 5.9q-8 7-16.2 13.6l-2 1.6a563 563 0 0 1-35.1 25.9c-55.8 37.7-125.7 38-189.8 26A956 956 0 0 1 667 783l-10 21.5A460 460 0 0 1 585 918l-2.4 2.7a553 553 0 0 1-19.1 20l-2.6 2.7a218 218 0 0 1-22.7 19.8Q525.7 973.3 512 982l-1.8 1.1c-53.4 33.7-118.5 51.5-181.2 37.6a212 212 0 0 1-83-39.7l-2.8-2.2a251 251 0 0 1-91.7-166.3c-4.7-46.6 12.4-91 41.4-127.1 10.7-13 22.7-25.3 36.1-35.4l1.8-1.4c40.8-31.3 91.6-50.5 143.3-44.3 33.6 4.5 62.8 21 87.5 43.5l6.6 5.8a98 98 0 0 1 12.2 13c15.8 18.7 24.2 32.2 25.1 56.8l.1 3.4a1444 1444 0 0 1 1 97.6v3c-.9 20.3-.9 20.3-7.5 26.9-6.7 5.5-14.5 9-22.5 12l-3 1.2c-25.8 9.7-59.5 21.6-87.6 18.5l-2.4-.2c-21.2-2.4-41-9.5-54.9-26.5a76 76 0 0 1-12.1-46.3v-2a180 180 0 0 1 14.4-67q3.5 4.5 6 9.6l1.9 3.3 31.6 59.8q9 16.6 17.5 33.3c9.3 0 21.5-13.5 28-20l5-6 2.3-2.7c21-26.1 33.3-58.8 40-91.4l2-8.5c2.1-9 2.1-9 .2-17.8a49 49 0 0 0-7.5-7.6l-2.2-2.2c-21.6-20.7-53.2-28-82.2-27.9-22.3.5-44.1 5.5-64.6 14.1l-2.2.9a152 152 0 0 0-81 80.5 152 152 0 0 0 1.2 115.5c16.6 35 49 58 84.6 71 13.8 5 28 8.3 42.4 11.1l3.8.8c48.8 8.3 105.9-11.7 145.5-39.4A242 242 0 0 0 530 898l2.6-2.4C578.8 851 595.4 784 597 722v-2.1c1-32.6-3.2-65.8-13-96.9l-.7-2.3a212 212 0 0 0-49.7-84l-5.2-5.4Q516.6 519 503 509l-1.8-1.3c-39-28.5-84-44-131.2-52.7l-2.4-.4c-38.8-7.2-84.4 1.5-121.6 13.4l-2.5.8A218 218 0 0 0 180 500l-1.7 1.2a226 226 0 0 0-47.6 45.6c-35.7 44.7-52.4 101.9-60 157.7l-.5 3.3-1.5 13.8a551 551 0 0 0-2 60.5 605 605 0 0 0 3.8 73.8A851 851 0 0 0 82.8 934l2 10.8.6 3c1.8 8 5.7 11.8 11.6 17.1l3.6 4q8 9.2 17.2 17.1l7.3 6.6c56.6 51.5 129.6 81.1 204.9 90.3l3 .4a398 398 0 0 0 90-.4l2-.2c80.5-9.3 156.5-35.3 266.3-92.2l14-8.3 2.4-1.4c12.4-7.6 22.4-18.9 32.5-29.1 12.8-13 12.8-13 19.1-18.3q3.8-3.4 7.2-7 5.6-5.7 11.7-10.9 2.7-2.4 5.3-5.1a115 115 0 0 1 7-6.6q6-5.2 11.9-10.8a982 982 0 0 1 22.6-20.6l2.5-2.2 5-4.6 18.7-16.5a584 584 0 0 0 16.5-14.4q6.4-6 13.3-11.3l10.4-8.9A1240 1240 0 0 1 934 779l1.8-1.5 26.5-21.2 6.7-5.3 11-8.6a1172 1172 0 0 1 39.8-30q14.3-10.6 28.8-20.7l8-5.6a801 801 0 0 1 36.7-24.6c72.5-46.4 155.8-69.8 434.7-82.5q-1-13.4-4-26.5 0-1.1-.4-2.2c-17.6-84.9-58-165-113.6-231.3l-1.3-1.5a519 519 0 0 0-24.6-27.7q-7.4-8.6-16.1-15.8zm-22 387-2.4.2c-44.3 3.7-88.1 10-130.6 23.8l-2.7.9a305 305 0 0 0-78.8 40.4q-4.2 3-8.5 5.7a854 854 0 0 0-30.3 20.8l-7.7 5.4a1298 1298 0 0 0-35 25.4 777 777 0 0 0-34.6 26.5 1226 1226 0 0 0-32.7 26.1q-12 9.7-23.9 19.7-5 4.3-10.2 8.5-8.5 7-16.8 14.3l-11.1 9.5a648 648 0 0 0-20.7 18.3l-17.9 15.9q-6 5.1-11.7 10.6-4 3.8-8.2 7.3-11.9 10.6-23.3 21.6l-13.6 12.7a337 337 0 0 1-18.7 16.2l-7.6 6.7c-9.6 8.7-19.8 16.6-30 24.5l-2.4 1.9a586 586 0 0 1-38.3 27.6 749 749 0 0 1-86.2 50A591 591 0 0 1 446 1153l-2.1.3a540 540 0 0 1-137.2-.8c-64.3-8-126-26-185.8-50.7L106 1096c9.3 41.3 34 82.7 62.7 113.5l6 6.8A224 224 0 0 0 277 1280l2.2.7c37 11.4 75.2 11.5 113.4 11.5h2.2c23.8 0 47.5-.3 71.2-2.2l2.4-.2c82.7-6.6 161.8-27.7 287.6-90.8l5.5-3.2a945 945 0 0 0 89.4-59.4q13.7-10 27.1-20.4l1.6-1.3q14.4-11.1 28.4-22.7l2.1-1.7a1270 1270 0 0 0 58.8-50.7q7.4-6.5 14.5-13.2a2236 2236 0 0 1 40.6-36.6l6.8-6.2 10.6-9q6-4.8 11.6-10.1 6.8-6.3 14-12l10.5-9a658 658 0 0 1 22.1-18.5 903 903 0 0 1 33.6-26.2c79.3-61.2 164.3-101.4 321.4-110.1h10.8l91.6-.7q.1-10.6-.9-21.1l-.3-3.2-4.8-52.6-3.2-35.4q-.7-7.3-1.8-14.7c-28.2-3-28.2-3-56.5-5.2l-3.4-.2-13.5-.7q-28.9-1.3-57.8-1h-2.5c-24.1 0-48.2 0-72.3 2.1m-165 292-1.8 1.5q-12.5 10.6-24.5 22l-8.7 8q-9.6 8.7-19 17.6l-35.8 33.5a4331 4331 0 0 1-74.5 67.7 222 222 0 0 0-12.2 10.7q-7 6.6-14.6 12.6-5.1 4.2-10.2 8.8-8.1 7-16.6 13.6l-11.7 9.6q-8.6 7.4-17.8 14.2l-6.3 4.8c-67 51.8-139.4 98-432 187.7l-3.9.5a694 694 0 0 1-81.3 3.5q-49 .2-97.6-6-9.2-1.4-18.5-1.3c3 3.3 6.4 5.8 10.1 8.3l1.8 1.2 7.9 5.2a582 582 0 0 0 64.4 37A576 576 0 0 0 423 1431l3.3 1.3a553 553 0 0 0 166.2 35h2.3a462 462 0 0 0 52.1-.2 541 541 0 0 0 198.8-51.1 274 274 0 0 0 44-26q12.3-8.3 24.3-17l2.1-1.5a1116 1116 0 0 0 38.5-29.3q19.7-15.5 38.8-31.8l5.1-4.4a687 687 0 0 0 25.4-22.4q7.4-6.5 14.5-13.1l5-4.5q8.7-8 17-16.6l6.2-5.5q6.7-6 13-12.4l2.4-2.4 19.7-19.8q6-6.1 12.6-11.8 3-2.5 5.8-5.4l2-2 2.2-2a258 258 0 0 1 17.2-15l7.8-7q6.9-6.2 14.2-11.8l11.2-9c23-19 47.7-36 73.3-51.3l3-1.8c70.8-42.3 151.6-70.3 234.7-71.5h3.8l39.5-.7c22.2-74.3 22.2-74.3 29-151a287 287 0 0 0-107-21h-3c-101.7-1.9-195.5 35.2-273 100m62 245-2 1.4q-24.4 16.7-47 35.6l-3 2.6-13.4 11.2a497 497 0 0 0-33.7 31.3l-5.6 5a136 136 0 0 0-13 13.3l-10.2 10.5q-4.8 4.8-9.2 9.9l-8.9 9.8-7.5 8.6c-3.4 4-7.4 7.1-11.5 10.4q-4.6 3.8-9 7.9-7 6.4-14.3 12.3-4.2 3.5-8.2 7.2-6.7 6-13.6 11.6l-9.8 8.3-1.8 1.5-3.5 3a606 606 0 0 1-23.5 19.4q-6.3 5-12.3 10.2-8.6 7.4-17.4 14.2l-11.2 8.9q-9 7.4-18.5 14.4l-6.7 5.2c-62 47.5-62 47.5-94 61.4l-6.2 2.9c5.7 1.2 11.3 1.2 17 1.2h18c86.5 0 172-15.6 374.6-99.7l6.5-3.8a542 542 0 0 0 67-46.7l2.9-2.3 8.1-6.7 1.5-1.3a504 504 0 0 0 26.2-23.1 525 525 0 0 0 19.6-18.8l2.6-2.5q6.5-6.5 12.5-13.5l7-7.6a331 331 0 0 0 17.6-20.9c71-85.2 71-85.2 108-184.3-86-2.1-168.6 27.4-274 92" fill="#4169E1"/></svg>