<svg xmlns="http://www.w3.org/2000/svg" xml:space="preserve" width="800" height="800" viewBox="0 0 512 512"><path d="M461.044 46.548C331.271-11.868 184.378 3.571 89.951 98.005-.94 188.893-18.62 328.363 32.254 454.389a3803.842 3803.842 0 0 0-23.973 23.734c-5.857 5.857 0 0 0 0l21.188 21.188c1.946-1.945 0 0 0 0A3929.665 3929.665 0 0 0 53.2 475.334c126.023 50.878 265.493 33.194 356.38-57.693 94.434-94.434 109.88-241.326 51.464-371.093z" style="fill:#75a874"/><path d="M17.463 511.318c-.766.765-1.048 1.043 0 0zM21.188 507.592c-.808.808-1.441 1.437-2.003 2.002a717.164 717.164 0 0 0 2.003-2.002zM18.568 510.209c-.393.393-.765.765-1.069 1.073.264-.265.636-.636 1.069-1.073z" style="fill:#5aa25a"/><path d="M89.951 85.799C-4.491 180.233-19.93 327.126 38.493 456.892l422.55-422.55C331.271-24.074 184.378-8.635 89.951 85.799z" style="fill:#79c17a"/><path d="M409.579 405.435c-94.434 94.434-241.327 109.88-371.086 51.457l422.55-422.55c58.417 129.766 42.971 276.659-51.464 371.093z" style="fill:#67b765"/><path d="M21.188 495.386c3.168-1.988 3.168-1.988 8.28-8.281C131.175 385.391 408.442 91.169 417.631 77.754 404.209 86.936 109.987 364.21 8.281 465.917 2.424 471.773 0 474.19 0 474.19l21.188 21.196z" style="fill:#5aa25a"/><path d="M267.027 236.353v-9.311c0-41.882-8.031-159.557-10.025-164.205-2.009 4.648-10.033 122.323-10.033 164.205l-.007 9.311h20.065zM160.479 342.901v-9.31c0-41.883-8.03-159.557-10.033-164.205-2.009 4.647-10.033 122.329-10.033 164.205v9.31h20.066z" style="fill:#5aa25a"/><path d="M260.813 230.139h9.31c41.882 0 159.557 8.023 164.205 10.033-4.648 2.009-122.323 10.033-164.205 10.033h-9.31v-20.066zM154.265 336.686h9.311c41.875 0 159.557 8.031 164.205 10.033-4.648 2.01-122.33 10.033-164.205 10.033l-9.311.007v-20.073z" style="fill:#5aa25a"/></svg>