<svg xmlns="http://www.w3.org/2000/svg" width="1100" height="300" viewBox="50 350 1000 60"><path d="m311 516-1-1-1-2-2-2q-1 0 0 0v-4l-1-1h1v-2q0-2 1-1v-1c-1-1-2 0-2 1h-1v-2h-2 2l2-2h1l2-1 4-3h4l6-2 4-1h2l4-2 5-1 1-1v-3l3-1h4a7 7 0 0 0 3 0l4-1 8-3a408 408 0 0 0-42 1l-4-2h-19a200 200 0 0 0-35 3h-4l-3 1h-1v1c-1-1-6 0-6 1l-6 1-2 1-2 1h-4l-6 1-4 1-2 1c1 1-1 1-10 2h-1l-1 1-2 1c-1 1-3 2-8 2h-7a8 8 0 0 0-3 1h-6c-3-2-17-1-18 1v2h-2 5l4-1h4l3 1h1l-1 1q1 1-8 2l-5-1h-5l-1-1h-14l-5-1h-4l-1-1q-1 0 0 0l-6-2c-2 1-2 0-2-1l4-1 5-1h1-2c-2-2-5-2-9-3l-9-1a65 65 0 0 0-21 0h-1a33 33 0 0 0-10 0l-7 1-15 1-8-1 2-2 6-2 14-2 2-2h-1l-1-1h1v-1q-1 0 0 0t0-1l2-2 2-1h-5a141 141 0 0 0-12-1l1-1 1-1h1l6-2 6-1a13 13 0 0 1 4-1l9-2-2-1h-2q-2 0 0-1a9 9 0 0 0 3-2l2-1 2-1c1-1 0-1-2-1l-5-1a59 59 0 0 0-11 0l-8 1 1-1 1-2q0-2 0 0t-1 0-1 0-1 0q-2 0 1-1t-2-2q-4-1-1-3l19-2h6l2-1-2-1-2-1q-2 0-1-2c0-2 5-4 7-4l1-1h-1l-2-3-9 1-16 3-2-1h2a74 74 0 0 1 10-2c9-2 11-3 5-3l-4-1h-6l-14 2h-1q0-2 5-3c2-1 0-2-3-2l-4 1-3 1 2-2 2-3h-3q-7-1-7-4l7-2 7-1 8-1 7-1 15-3-2-1-3-1 11-4 5-2 4-2q6-1-1-3l-1-1 4-2 1-1h-5l-3-1H94q-8 1-8-1l5-4 5-3q-2-1 4-3c5-1 9-4 9-6-1-1 1-1 10-3l9-2 4-1 14-3a6 6 0 0 1 2-1 9 9 0 0 0 3 0q2-1-1-1l-8-1-2-1q-1 1 0 0l2-1h7l4 1 4 1h3l-1-1h-1l-1-1-1-1 11-2 9-1-1-1-1-1 1-1c2 0 2-1 1-1h-6l-14-1h-2v-2c0-2 0-2-6-2-4 0-4 0-3-1l14-2 5-1q2-2 3-1l3 1 22-2c2-1 2-1 1-2v-4c-1-2 1-2 9-2h9l12-2 4-1h2l-2-1h-21l-12 1a180 180 0 0 1-21 2l-2 1h-1l-2 1q-1-1 0 0 1 0 0 0l-1 1h-2l-1-1-1 1h-1l-2-1-2 1h-2l-5-2q0-1 0 0-1 1-1-1l2-4h1v-1l5-1h3q0 1 0 0l-2 1v1q1 0 0 0l1 2c1 0 2 0 1-1h6q1 1 1-1l1-1 1-1 2-1 2-1h1v-1h5l-1-2-2-1c1-1 2-2 5-2l4-2h2l7-2q1 0 0 0h-19l-1-1-1-1-1-2v-1h2c-2-1-1-2 1-2l2 1h5a8 8 0 0 1 2-1c3 0 3-1 1-1l-2-1q-1-1 1-1l2-1c0-1 2-2 3-1l1-1h2l4-1c3-1 3-1 2-2h-21a77 77 0 0 1-19 0v1h-5l1-1 1-1h-2a7 7 0 0 1 6 0h4q-1-1 3-1h4l6-1 8-1 5-1 5-1h-13l-13 1-16 2h-3l-3 1a63 63 0 0 0-7 1 70 70 0 0 1-14 1v-1l1-1 4-1 3-1a511 511 0 0 1 74-10 86 86 0 0 0 9-2h16l8-1a146 146 0 0 0 18-2l3-1 8-1h10c1 1 2 0 7-1l37-7a194 194 0 0 1 24-4l15-2 18-3c6-2 7-1 9 0l1 1v1h2q2 0 1 1c-1 1 0 2 1 1l-1 2-3 1q-3 1-2 2c1 1 1 1 36-4h10l11-1 10-1a72 72 0 0 1 17-1 73 73 0 0 0 9-1 190 190 0 0 1 20 0l16 1a80 80 0 0 0 13-1l16-1h79q3 0 2-1h-1l5-1 16 1 20 1a1432 1432 0 0 0 92 5 404 404 0 0 0 31 2 223 223 0 0 1 32 2l16 1a280 280 0 0 1 27 2l23 2 3 1 6 1 8 1v1-1h3l1 1q1 2-1 0c-1-1-2-1-2 1h-5l-16-1-12-1h-1l-2 1-9-1-4-1h-18l-14-1h-15l3 1h5l25 2a189 189 0 0 0 27 2 360 360 0 0 0 15 3h-8l-3-1h-8l-2-1a69 69 0 0 1-18 0l-4-1h-1l-2 1h-20c3 1-2 2-8 1h-13a165 165 0 0 0-28-2l-9-1-15-1a465 465 0 0 0-33 0l-9 1h-2l4 1h6a444 444 0 0 0 27 2l12 1 12 1a1141 1141 0 0 1 38 2l10 1 2 1h3l3 1 7 1a61 61 0 0 1 12 2 704 704 0 0 0 41 2l14 2a705 705 0 0 1 58 4h-38a902 902 0 0 1-31 0l-4 2c-2 0-2 1-1 1l9 1a365 365 0 0 0 27 2l16 2a60 60 0 0 1 13 1c4 0 3 2-3 3h-4c-7 0-5 1 2 2l10 1 8 1 12 1 7 1 5 1 4 1 5 1 5 1 6 1 13 1s-4 2-5 1l2 1q3 1 0 2c-1 1 1 2 7 3 5 1 8 2 5 2l5 1 4 1 4 1q8 2 0 2l-4 1-6 1c-7-1-8-1-9 1l-1 1 4 1 4 1 3 1c4 0 4 1-1 1h-4l-6 1-5 1h2l4 1 7 1h5l1 1h2l-3 1-9 2 7 1 5 1 4 1h3l-2 3v-1q1 0 0 0l-2 1h-7c-6 0-8 0-7 2 2 2 11 5 17 5q5 0 5 2l-4 1-6-1-13-1-11 1q0 2 2 2a193 193 0 0 0 29 4c7 1 10 1 9 3h-1l-1 1h-1l-1 1q-4 1-2 3v2q-1 1 2 1l1 1v1h-14l-1 2 1 4 1 1q-2 0 0 0c1 1-1 1-6 1-3 0-5 1-5 2h-1l-3 1v1a5 5 0 0 0 2 1l5 2 6 2 8 1h1l1 1c0 1-3 3-5 3h-1l-9 1-13-1q-15 0-9 1l4 1h5l2 1h1l2 1v1q-4 2 2 4l4 2 1 1-1 2h-1l-1 1-4 2h-7l-6 1-9 1h-4c-2 0-3 1-3 2l2 1 5 2c7 1 11 3 11 4l-1 1h-1l-1 2-2 1-1 1h-2l-5 1-4 1 1 1 2 2 2 1c2 0 2 1 1 2v2h-2l-2 1-1 1h1c2 0 3 2 2 2h-1l-2 1-4 2-3 1c-1 1-2 1-7-1-4-1-6-1-7 1l-5 1-10-1 4 2 5 1c-1 1 6 4 13 4l4 1-1 2v4l-12-1a36 36 0 0 0-14-2v1l9 3 3 2h-4l-5 1h1a32 32 0 0 1-9-1l-10-2-1 1v1c-1 1 6 2 18 4l5 1 4 1c2 0 6 1 5 2h-7l-7 1 3 1c2 1 2 1 1 2h-8 2q4 2-1 2l-6 1h-3a252 252 0 0 0-27 0h-13a214 214 0 0 0-30-4h-12a330 330 0 0 0-20-2l-5-1-6-1-19-1a412 412 0 0 1-19-1h-16a319 319 0 0 1-36-1h-19l-3-1h-3c-3-1-7-2-8-1-1 0-4 0-3-1h-6l-11-2q-2-1-1 1l-1 1-2-1h-1l-1-1-1 1q1 1 0 0h-6l-34-1a494 494 0 0 1-29 0l-25 1c-4 0-9 2-6 3l-1 1-2 2h-34a277 277 0 0 0-24 1l-7 1c-1 1-6 2-7 1l-5 1a13 13 0 0 1-5 0h-6l-8 1h-3l-3 1h-1l-4-1-13 1a90 90 0 0 0-15 1v1l3 1h2v1h-4q-1 1 0 0t-1 0l-1 1-8 1a370 370 0 0 1-30 1l-24 2c-14 1-25 3-27 5l-3 2a252 252 0 0 0-28 2 83 83 0 0 0-10 1zm0-5h-1l-1 1h1l1-1m93-8c2-1 2-1-3-1l-13 2 16-1m-256-7h-1l-1 1h1zm40-2h-3q-1 1 1 1l1-1m-26-2-2-1c-1 1-1 2 1 1h1m313 0 1-1c-2-1-19 0-29 1a245 245 0 0 0 28 0m19-2h-3c-4 0-6 0-3 1h3zm-352 0-1-1-2 1h3m360-1h-2l-3 1h2l3-1m432-6-3-1q-3 0 0 1h3m-851-8h-1q-1 0 0 0t1 0m6-1h1-2 1m8 0 1-1-3-1-2 1 2 1h2m897-9-1-1v1h1m-883-23h-1q-1 0 0 0m-4-2h-4q-3 2 1 1l3-1m10 1-2-1 1 1h1m-4-1h-3 3m920-64v-1l-1 1h1q1 0 0 0m4-11h-1l1 1v-1m-8-6h-2 2m-26-5-4-1-6-1h-1l5 1 6 1q1 0 0 0m-805-5q2-1 0 0h-2 2m802-3-6-1-7-1 6 2h7m-833-7q1 0 0 0h-1l1 1v-1m74-1h-1 1q1 0 0 0m-86-1h-1q-1 0 0 0h1m3 0-1-1-1 1h2m31-4 5-1a45 45 0 0 0 8-2l6-1q4-2 0-3h-2c0-1 3-2 7-1a22 22 0 0 0 8-2l-6-1a17 17 0 0 0-7 1l-4 2h-1 2v1l-5 1-3 1h-1v1h-1l-3 1h-3q0-1 0 0l-6 2-1 1h3a21 21 0 0 0 4 0m23-20h-2 2m667-2-2-1h-2 3m-665-3h2l-1-1-4 1h3m661 0h-1v1l1-1m3 0h-1v1l1-1m-654-1h-1l1 1v-1m-62 0-1-1v1h1m14-2-1 1h1zm6 0v-1l-1 1v1l1-1m723-19h-1v1l1-1m-509-11v-1l-1 1h1M131 511v-1c-2-1-1-2 2-2h1l-1 2 3-1q0-2 1 0h6l1 3-1-1q1-1 0 0l-6 1-6-1m-7-1v-2l1 2h-1m11-5 1-1h2q2 0 1 1-2 2-4 0m335-4h1l-1 1v-1m6 0 1-1v1h-1m-296-2 1-1h1v1h-2m623-5h2l-1 1-1-1m-9 0h2-2m-547-1q-1-2 2-1l1 1h-3m477-1v-1l1 1h-1m-8-1v-1l1 1h-1m2 0c-1 0-1-1 1-1l1 1h-2m265-3v-1l1 1h-1m-686-3h2-2m5-1 2-1h5v1l-4 1-3-1m-225-1 1-1v1h-1m5-14 1-1q0-1 0 0l-1 1m4-1h1q1 1 0 0-1 2-1 0m963-72h-1 2v1l-1-1m-908-41h3l-1 1-2-1m24-8-2-1 4-1h6l3-1 3 2h-4l-5 1h-5m-7 0h1-1q-1 0 0 0m-10-8q0-1 0 0v1-1m15-4-1-2c-1-1-1-1 2-2l4-1-1 1v1h3l-2 1h-3q-1 0 0 0t0 1l-1 1h-1q-1-1 0 0m7-5v-1c1-1 1 0 1 1h-1m-19-23q-1 0 0 0t1 0 0 1l-2-1m12-2 1-1-1 1q-1 1 0 0m780-9 5-1v1h-5m-3-1h2-2m-15-1-18-1-8-1h-11l3-2v1h3l1-1q3-2 0 1h1l1-1h4l3 1h3l5 1h1v-1l6 1a86 86 0 0 1 12 1l-3 2zm-22-2-1-1-1 1h2m30-2h-1l-1-1h2v1m-12-2-1-1a9 9 0 0 1-3 0c-3 1-6-1-5-1h12l-1 3-2-1m6 0q-1 0 0 0h2-2m-646-4h1q1 0 0 0h-1m111-16h1q1 0 0 0v1h-1m13 0c-1-1 0-2 1-2h1v-2l1-1h1l2-1q4-1 3-2h7v-1l2 1 1 1 1 1c2-1 2-2 0-2q-2 0 0 0a9 9 0 0 1 3-1h5a365 365 0 0 1 30-3l25-2h16l3 1-2 2-4 1q-3 0-2 1h4c4 0 6 1 5 2h-24l-4 1-2-1h-6q-6 0-5-1h-1l-3 1h-2l-5 1h-10l-6 1-11 1h-1c1 1 0 1-1 1h-4l-2 1-3-1-1-1-1 1v1h-3c-2 1-7 2-8 1m-8-2h1-1m2-1h2-2m191-1-2-1h3v1zm-12-2h1l-1 1v-1m3 0h1l1 1h-2m-71-2c-1-1 0-1 7-1h10l2 1c2-1 2 0 0 1l-2-1-1 1h-6c-1 1-2 0-1-1h-1l-4 1-4-1m45 1v-1 2-1m-23-1v-1l1 1h-1m216 0-2-1h-14l-1-1h1l1-1 2-1q2 0 0 1h2c2-1 1 0 2 1q1 1 0 0l1-1 2 1h11l2 1q1 0 0 0l-7 1m9 0 1-1h2c2 0 3 1 1 1h-4m-40-2-2-1-2 1h-4l-11-1h-48l-6-1h-7q0 1 0 0a27 27 0 0 0-8 0 6323 6323 0 0 1-77-1v-1h-1q-2 1-1-1h-1l-1 1q-2 0-1-1v-1l2-1 1-1h2v-1l1 1v2l2-1q1-2 2-1l21-1a1147 1147 0 0 1 49 1l26 1a13 13 0 0 0 6 1h12a191 191 0 0 1 30 2l15 1v2l2-1q2 0 1-1l1 1h7l3 1q2 0 0 0v1h-13m-160-5h-1l1 1v-1m-32 2v-1l-1-1 1-1 1 1c0 2 1 2 2 1v-1l-1-1 3-1h8l-1 1-1 1 2-1 2-2 1 2v2h1l-3 1c-3 0-4 0-4-2h-3 1q1 0 0 0t-1 1-1 0c1 1-1 2-3 1l-3 1v-1m15-2-1-1v1zm-23 2 1-1 1-1v-1 3h-2m4-2h1l-1 1v-1m2-1 2-1 2 1h-4m-7 0h1-1q-1 0 0 0m29 0v-1l1 1h-1m-3-1q-1-1 1-1v1h-1"/></svg>