<svg xmlns="http://www.w3.org/2000/svg" viewBox="50 350 1000 60" width="1100" height="300"><path d="M310.9 516q0-1.2-.6-1t-1.3-1.7c-.5-1-1.2-2-1.8-2q-1 .2-.2-.7.7-.8-.1-1-.9-.2.1-1.2 1-1.1.1-1.3-.5-.3-.6-.8t.5-.2q.5.3.2-.5-.2-.7.3-.8.8 0 0-1.1-.7-1.3.3-1.1 1 0 .2-.8c-.7-.7-2 0-2 1q.1.4-.5.7t-.3-1q.3-1-.2-1-.6.3-1.6 0-1.4-.5 1.3-.8 2.2-.5 2.3-1.2.1-.8 1-.8 1.1-.1 2-1c.7-1.1 3.5-2.6 4.4-2.4.2 0 1.8-.2 3.6-.7l6.5-1.1c2-.3 3.6-.7 3.8-1q.4-.3 1.5-.4c.7 0 2.7-.8 4.5-1.7 1.9-.9 3.8-1.6 4.3-1.6q.8 0 1.3-.6.1-.5-.3-.5c-.8 0-.5-2.5.3-2.6l3-.7c1.3-.4 3-.5 3.7-.4a7 7 0 0 0 3.1-.2l4.8-1.1q7.1-1.5 7.2-2.2c0-.5-28.4-.1-35.4.5-3.7.3-5 .2-6.6-.4l-4-1.7q-1.7-.6-2.6-.3c-.5.1-7.8.4-16.3.5a200 200 0 0 0-34.7 3.1c-.6.4-2.3.5-3.8.3-1.5 0-2.8 0-3 .3q-.2.3-.8.1-.5-.2-.5.3t-.4.5c-1-.3-5.7.7-5.7 1.2s-4.1 1.4-5.7 1.2q-1 0-2.1 1-1 1-2 1.2c-.5 0-2.4 0-4.2.2-1.9 0-4.3.4-5.6.7l-4.3 1c-1.1.1-2 .5-1.7.8.5.8-.8 1-10.3 1.8q-1 0-.9.6t-1 .8l-2.5 1.3c-1 .7-3 1-7.4 1.3l-7.4.3a8 8 0 0 0-3 .8q-1.5.8-2 .4c-.5-.7-2.4-1.4-2-.7q.7 1-1.5-.1c-3-1.6-17-.4-18.5 1.6q-.7.9-.1 1.2.5.1.5.6t-.7.2q-.8-.2-1.2.3c-.5.9 2.8.8 4.6-.2.8-.4 2.6-.9 4-1.1l3.4-.6q.9-.1 1 .5 0 .8 2.3.6 2.6-.2 1.4.4-1 .5-.7 1 .3.7-8.8 1.5c-3.3.2-4.4.1-4.8-.5q-.5-.7-.5 0c0 1-3.3.8-4.5-.3q-.9-.8-1-.3c0 .3-1.8.3-4.5.1l-8.7-.7c-2.3-.2-5-.6-6-1-1-.3-2.4-.5-3.2-.3q-1.2.2-1.7-.3-.2-.6.4-.1t.3-.2c-.4-.6-3-1.2-6.1-1.4-1.9 0-2.2-.3-2.3-1.3s.3-1.2 3.6-1.6l5-.3 1.4.1-1.5-.8c-2.5-1.3-5-2-9.8-2.3-2.6-.2-6.3-.7-8.3-1.2a65 65 0 0 0-21-.1q-.4.5-1 .3a33 33 0 0 0-10.8-.2c.3.5.2.5-7 .7-5 .2-7.2.3-14.9 1.3-3.4.4-5.5.2-7.5-1-.8-.4-.6-.6 1.4-2q2.3-1.4 6.6-2c5-.6 10-1.4 13.4-2.2 2.1-.4 2.5-.7 2.3-1.6q-.3-1-1-.7-.8.2-.8-.3t1-.6q1.2 0 .1-.6-.8-.5-.2-.5t.4-.9q-.4-.7 1.8-1.7l2.1-1-5.4-.3a141 141 0 0 0-12-.3l1.2-1.3 1-1q.1.3 1.3-.4c.7-.4 3-1 5.3-1.4s5.1-1 6.3-1.4a13 13 0 0 1 4.2-.8c3 0 10.8-2 8.6-2.3l-1.6-.3-1.8-.4q-1.9-.5-.2-1.1a9 9 0 0 0 2.6-1.8c.8-.7 2-1.3 2.7-1.3q1.2 0 1.9-.7c.5-.7 0-.9-2.6-1.2l-4.8-.6a59 59 0 0 0-11.4 0c-.8.6-7.1.8-7.1.3q0-.4.8-1.1t.8-1.3-.3-.2-1.1-.2-.8-.1-.8.5q-2-.1.9-1.4 3.2-1.1-1.6-2-4.6-1.1-1.4-2.5c2.2-1 12.7-2.1 18.7-2.1 2.8 0 5.8-.2 6.6-.4l1.5-.4-1.6-1.3q-1.5-1.2-2.5-1.3-2-.1-1-2.2c.7-1.4 5.5-3.9 7.5-3.9q1.3 0 1-.5t-1.3-.6c-1 0-2-1.4-1.8-2.3.2-1-8.5.1-9.3 1.1-.5.8-14.6 3-16 2.4l-1.3-.5 1.3-.6a74 74 0 0 1 10.2-2.2c9-1.5 11.1-2.6 5.2-2.6-1.8 0-3.4-.3-4-.7-.7-.7-1.8-.7-6.3-.1q-12.4 1.5-14.1 2-1 .3-.8-.6.4-1.6 4.6-3c2.3-1 .8-1.6-2.1-1.1l-4.8.7-2.5.4 2-2c1.2-1 2.1-2 2.1-2.1s-1.5-.4-3.4-.6q-6.7-.8-6.8-3.6c0-1 3.6-2.2 7-2.5l6.8-1c2.4-.5 6.2-1 8.3-1.1l7.2-.9c11.3-2 13.8-2.4 14.3-2.7q.3-.4-2-1c-1.3-.3-2.4-.9-2.4-1.3 0-.9 5.6-3 10.6-3.8q3.9-.8 4.9-1.8c.5-.6 2.4-1.3 4.2-1.7q6.3-1-.5-3.2-1.6-.7-1.5-1.3c.3-.8 2.9-2 4.3-2q.8 0 .6-.6c-.1-.3-2.1-.5-4.4-.5-3.7 0-5.2-.6-3.4-1.3 1.6-.7-6.5-.3-10.4.4q-7.6 1.5-7.7-1c0-.8 1.4-1.8 5.4-3.8q5.6-3 4.7-3.2-1.7-.9 3.7-2.5c5.2-1.7 9.4-4.6 8.8-6.2-.3-1 1.7-1.6 10.1-2.8 4.2-.6 8.4-1.5 9.3-2s3-1 4.4-1.1c4.1-.5 12-2.5 13.2-3.4a6 6 0 0 1 2.8-.8 9 9 0 0 0 2.7-.5q1.5-.6-1-.5-7.1-.3-7.9-1.5-.6-.9-2-.5-1.5.5-.2-.3 1-.5 2-.4c.4 0 1.2 0 1.6-.3q.8-.4 2.1.2 1.3.9 2.4.1 1-.6 1.4 0c.2.2 1.7.5 3.5.5 1.7 0 3.7.3 4.5.8q2.3 1.4 2.2.3 0-.5-.9-.6-.7 0-.5-.5t-.9-.8-.9-1c.3-.7 2.7-1.2 10.4-1.8 6.9-.6 8.8-1 8.8-1.4q-.1-.5-.8-.6t-.8-1q-.1-1.3 1.3-1.2c1.6 0 1.9-.8.4-1.2-.5-.2-3.3-.1-6.2 0-8.3.5-11.7.3-13.4-.6q-1.6-.8-2-.7t-.1-1.3c.2-1.9-.5-2.2-6.2-2.3-3.4-.1-3.7-.2-2.5-.8 2-1 9-2.4 13.3-2.7 2.2-.1 4.2-.6 5-1q2.1-1.8 3.5-.1 1 .7 3.2.8c4 0 19.3-1.6 21.4-2.2s2-.7 1.6-2.5q-.4-1.7.1-2.4t0-1.3c-1.3-1.6.3-2 8.4-1.7 6.3.2 8.2 0 9.5-.6s7.4-1.6 11.5-1.8c.6 0 2.4-.2 3.9-.5l2.7-.5-2.4-.4c-1.4-.2-5.5-.3-9.2-.1l-11.5.2c-2.8 0-8.1.3-12 .8-7.4 1-15.2 1.7-18.5 1.7-1.2 0-2.3.2-2.5.4q-.4.5-2 .6t-1.8.5-1.2.1q-1.4-.4-.4.3 1.1.6-.2.5-.9 0-1 .7 0 .4-1.3-.3-2.3-1.6-1.7-.4.2.5-.8.8-1 .2-1-.4c0-.4-1-.6-2.2-.6q-2 0-1.9.6t-2 .4c-2.2-.2-4.5-1.5-4.5-2.6q0-.6-.5.2-.6 1-.6-.7c0-2 1-3.7 2-3.7q.8 0 .5-.6-.2-.4.7-.6 2.6 0 4.2-1.2c1-.7 3.7-.4 3.7.4q-.1.3-.8 0-.7-.1-1.5.7-1 1.1 0 .5t.4.5q-.3 1 .3 1.5c1 .6 2 .5 1-.2q-1-.6 1.3-.3c1.2.2 2.6 0 3.1-.3q1-.7 1.8 0 1 .9 1.3-.3.4-.9.3-1.4 0-.3.7-.4.7 0 1-.6c.1-.4 1-.7 1.8-.8q1.7-.3 2.3-1 .6-.8 1-.5t.1-.5c-.4-1.2.7-1.3 1.1-.1.3.7.5.7 1.4-.1 1-1 1-1 1 0q0 1.4.6.3c.8-1.2.7-1.5-.8-1.9q-1.4-.3-1.3-1.5c.1-1.3 2-2.2 4.3-2 2 0 3.9-.7 3.9-1.6q-.1-.9 2-.7c2.2.2 6-.4 7.3-1.2q1.1-.5-.2-.5l-4-.3c-4.6-.4-10.8-.4-13.1 0q-2.2.6-1.8-.1t-.4-.4q-.7.2-1.7-1.2-1-1.5-.4-1.7.8-.3-.3-1-1.5-1 .7-.5h1c-1.5-.7-.7-1.4 1.5-1.4q2.1 0 2.2.7 0 .8.5 0 .5-.7.8-.3c.4.6 1 .6 2.8-.1a8 8 0 0 1 2.9-.5c2.3 0 3-1.5.7-1.5q-1.5 0-1.9-.8t.8-.8q1 0 1.5-.7c.6-1 2.9-2.2 3.5-1.8q.4.2.8-.3t1.9-.5c.8 0 2.8-.4 4.5-1 2.6-.7 2.8-.9 1.8-1.3-.7-.2-5.3-.4-10.3-.4s-9.3 0-9.7-.3q-.8-.4-1.1.1a77 77 0 0 1-19.2.5q-.8.3-.2.7.3.3-1 .4-1.7 0-1.8-.5 0-.5-.8.1t-1.2.3 1-1.4l1.3-1-1.4.2q-1.7.4-.2-.2a7 7 0 0 1 5.7.1c1.5.9 3.4.6 3.4-.5q-.2-.6 3.6-.7 3.4 0 3.5.6t.7-.3c.5-.6 2-1 5.4-1.2 2.6-.2 6.3-.7 8.2-1.2 2-.4 4.3-.8 5.2-.8s3-.4 4.6-.8c2.5-.7 2.3-.7-4.7-.5l-8.3.3-12.7 1.3c-6.5.8-13.7 1.4-15.8 1.5s-3.9.4-3.7.6q0 .4-2.1.4a63 63 0 0 0-7.4.8 70 70 0 0 1-14.2 1q.6-.3.4-.7-.1-.5 1.2-.6c.9 0 2.4-.5 3.5-1l3-1.6a511 511 0 0 1 73.8-10 86 86 0 0 0 9.1-1.4q2.9-.9 3-.2c.4.6 6.2.4 13.2-.3 1-.2 4.4-.4 7.5-.6a146 146 0 0 0 18.4-2.5c1.3-.3 2.6-.4 2.9-.3s4.1-.2 8.5-.9c6.6-1 8.3-1 9.3-.5s2.4.5 7.3-.5l37.3-7.2a194 194 0 0 1 23.9-4.2c6.5-1 7.8-1.1 14.4-2.4l18.2-3.1c6.5-1.1 7.7-1 9 .1q1.1 1.2 1.2 1.8 0 .5.4.6h1.7q1.5-.1.7 1c-.7 1.3-.1 2 .9 1.2 1.1-1 .9-.1-.4 1.4q-1.2 1.3-3.4 1.7-2.5.3-1.4 1.2c.9 1 .1 1.1 35.5-3.1 2.4-.3 6.8-.7 9.6-.8l11.6-.9 10.2-.8a72 72 0 0 1 16.6-1.4 73 73 0 0 0 9.2-.3c1-.3 14-1 17-.9 1.4 0 2.9.5 3.3.9 1 1 3.7 1 16 .6a80 80 0 0 0 12.6-1.2c2.3-.6 6-.8 15.8-.7 7 0 18.7-.1 26-.4 14.8-.4 14-.4 29.3.2 9.9.5 15.6.5 24.3.1q2.4 0 1.8-.4-.9-.2-1-.8t4.6-.2l16.7.8c6.7.3 15.2.9 19 1.2a1432 1432 0 0 0 92.5 5 404 404 0 0 0 31.2 1.3 223 223 0 0 1 31.6 2.2q4.8.8 15.9 1.1a280 280 0 0 1 27 2.2l22.8 2.2 3.9.6c.4.2 3 .4 5.7.5 7.4.3 7.4.3 7.4 1.2q0 .7.5.8.6 0 .2-.7t.6-.2 2.2.3 1.3 1.1q.2 2-1.3.3c-1.2-1.1-2.5-1-2 .2q.1.9-.2.3-.5-.6-5-.2c-5.1.4-9 .3-16.2-.5l-12-1.4q-.6-.2-1 .6-.2.9-2 .5c-2-.5-3.2-.6-8.5-1.2l-4.2-.5c-.4-.3-7.7-.3-17.9-.1q-9.4.2-14.3-1c-1.9-.5-15.2-.7-15.2-.2 0 .2 1.7.5 3.7.8 2 .2 4.3.4 4.9.6 4.2.8 15.6 1.7 24.8 2a189 189 0 0 0 27.3 2.2c3.6.4 12.5 1 14.8 1.1.8 0 1 .8.2 1.2-.6.4-4.7.4-8.5.2-1.1-.1-2.3-.5-2.5-.9-.4-.5-1.3-.6-3.7-.3l-3.7.5q-.4.2-1.2-.6-.8-.7-1.1-.3a69 69 0 0 1-18.9-.8c-1.2 0-2.7-.4-3.4-.7q-1.4-.8-1.2 0-.2.7-1.8 1c-4.4.3-10.5.2-15.3-.2q-5.2-.3-4.5.2c2.2 1.4-1.9 2.1-8.2 1.4-5.7-.6-6.7-.7-9.1-.3-1.3.2-3 .2-4 0-2.3-.7-14.6-1.8-20-2-2.6 0-6.4-.2-8.3-.4l-8.9-.6-15.2-1.1c-5.4-.5-13.6-1-18-1.2-7.3-.3-8.2-.3-8.5.5s-1.3 1-6.5 1c-3.4 0-7.3.1-8.6.4l-2.5.4 4.1.6c2.3.4 5 .6 6 .6a444 444 0 0 0 27.6 2.3c5.7.4 10.9.8 11.5 1l12.5.7a1141 1141 0 0 1 37.4 2.2c5.3.3 10 .6 10.5.8l1.9.6c.6.3 2 .5 3.2.6s2.4.6 2.8 1c.5.7 2 1 7 1a61 61 0 0 1 11.6 1.2c10.8.9 21.7 1.5 26.7 1.7 3 .1 9.5.6 14.4 1.1l13.8 1.2a705 705 0 0 1 58.6 4.2q0 .3-1.6.5l-3.4.1q-1.4 0-1.8-.2c0-.3-1.1-.2-2.2.1s-3.7.4-5.7.2-12.5-.4-23.5-.6c-11 0-24-.3-29-.5-8.9-.4-11.4-.2-5.6.4 1.7.2 3.1.5 3.3.6.4.4-1.7 1.4-3.3 1.6-2 .3-2.6 1-1 1l8.6.6c4 .3 11.7.7 17.2.8 9.1.3 10.1.5 10.1 1.3 0 1.2 2.2 1.5 15.6 2a60 60 0 0 1 12.8 1.4c4.6 0 3.3 1.5-2.3 2.7-1.5.4-3.7.6-4.7.6-6.7-.4-5 .7 2.6 1.6l9.4.9 8.6.8c2.5.3 7.8.7 11.6.9q6.9.4 7.4 1c.3.5 2.3 1 4.4 1.2s4.1.6 4.4 1 2.4.8 4.6 1 4.6.8 5.3 1.2c.8.5 3.2 1 6.4 1 7.1.4 12.7 1 13 1.5s-4.5 1.3-5.2.8q-.6-.1-.6.2.2.5 2 1 3 .6.9 1.6c-1.8.7.7 1.8 6.4 2.8 4.8.8 7.8 1.9 5.6 2-2 0 1.1 1 4.4 1.3 2 .2 3.9.6 4.2.9s2.3.8 4.2 1q8 1.5-.2 2c-2 .2-3.9.7-4.4 1.2-.8.7-1.8.8-5.3.4-7.1-.6-8.5-.5-9.6 1q-.8 1.1-.7 1.6c.1.2 2 .5 4 .7s4 .6 4.2.9c.3.2 1.8.6 3.2.8 4 .6 3.2 1.3-1.4 1.3-2.2 0-4.3.2-4.5.5s-2.5.4-5.1.4q-4.8 0-5 .7t1.9.7c1.1 0 3 .2 4 .5 1.1.2 4 .6 6.6.8s5 .6 5.3.9q.7.5 1 .2t1.6.1c1 .4.4.6-2.6.8-3.5.4-7.5 1.2-9.7 2q-2.1.6 7 1.9c3.2.4 5.7.9 5.7 1 0 .2 1.7.3 3.6.1 3-.1 3.6 0 3.6.6 0 1-1.7 2.7-2.8 2.6q-.9.1 0-.5 1.2-.6-.1-.5-.9 0-1.3.8c-.3.7-1.3.8-6.8.6-6.8-.3-8.5 0-7.2 1.5 2 2.6 10.7 5.3 16.6 5.3q5.4 0 5.5 2c0 .6-.9.8-4.3.8-2.4 0-5.3-.3-6.5-.6s-7-.7-12.7-.9c-10.2-.2-10.5-.2-10.6 1q0 1.5 1.8 2a193 193 0 0 0 29.2 4c7.1.5 9.6 1 8.8 2.3q-.2.4-.8.2-.5-.2-.4.4t-.8.6-.7.4-1.6.8q-3.3.6-1.6 3 1 1.2.2 2-1 1.2 1.2 1.3.9 0 1 .3l.4 1.2c.3.8 0 .9-4.6.6l-7-.7q-2.2-.5-2 .5-.1.8-1 1.4c-1.2.7-.5 3.8 1.1 4.5q1.8.5.1.5-1.5 0 0 .6c1 .4-.4.6-6 .8-2.4 0-4.2.8-4.2 1.7q0 .8-1.5.8l-2.8.3c-1.2.4-1.2.4-.3 1.1a5 5 0 0 0 2.5.8c.9 0 3.2.9 5.2 2 2 1 4.4 1.9 5.4 1.9 3.4 0 8.6.7 8.3 1q-.1.5.7.4t1.2.9c.2 1.2-3 3.3-4.7 3q-1.2-.2-1.5.4c-.2.8-6.7 1-9.2.3-1.1-.3-6.8-.6-12.6-.7q-14.6-.2-9 1c.8 0 2.6.5 4 .8s3.5.6 4.8.6q2.1 0 2.3.5 0 .6.9.6t2 .6c1.1.6 1.1.6-.2 1.3q-3.5 1.6 2.3 3.4c2 .6 3.6 1.5 3.8 1.9q.2.8.7 1.1c.9.6-.2 2.3-1.1 2q-.8-.5-.6 0 .3.3-1 1.7t-3.8 1.4q-2.1.1-2.1.5c.1.2-2.2.2-5 0-4.3-.1-5.5 0-6.3.6-1 1-6.4 1.4-9.2.7q-1.8-.4-2.1.2-.5.5-1.7.6c-1.7 0-3 .5-3 1.2q0 .4.7.5.8 0 1.3.8t5.7 1.9c6.4 1.2 11 3.1 10.6 4.3q-.4.6-1 .5-.7-.3-.6.2.2.5-1.1 2.2t-2.6 1.3q-1-.2-.8.2t-1.6.6c-1 0-3.6.4-5.8 1l-3.8 1 1.2 1.2q1.2 1.2 1.7 1.3c.3 0 1.4.4 2.4 1 1.9.8 2 .9 1.1 2.1q-.7 1.3-.3 1.6.5.4.2 1t-.8-.2q-.4-.8-1-.2-.3.6-2 1.3l-1.6.8 1.7.2c1.9.2 3 1.7 1.5 2.2q-.8.3-1.1 0t-2.2.7c-1 .6-2.7 1.2-3.9 1.5-1.1.2-2.4.7-2.8 1-1 1-1.4 1-6.5-.3-4.6-1.2-6-1-7.8.7-1 1-1.5 1-4.4.5-3.8-.7-10.9-.8-10.5-.2.2.3 2.1.8 4.3 1.2 5.7 1 6.3 1.2 5.4 1.7-1.6 1 5.6 3.4 12.6 4.1 1.9.2 3.6.6 3.7.9q.2.4-.9 1.9c-1 1.3-1 1.5-.2 2.4l.8 1.3c0 .7-9.3-.3-12.4-1.3a36 36 0 0 0-14.2-1.7q-.6.6 0 1.3c.6.7 1.5 1 8.8 3q3.5.9 3.5 1.8c0 .7-.7.7-4.1.4q-4-.3-4.5.2-.2.5.4.6.5 0 .4.3a32 32 0 0 1-9-1.9c-.6-.5-8.7-1.7-10.4-1.6q-.9.1-1 .8 0 .6-.3 1.4c-.2.7 6.5 2.1 18.1 3.8 1.8.3 4.1.9 5.2 1.3s2.8.9 3.7.9c2.5 0 6.1 1 5.5 1.6-.2.3-3.6.6-7.4.7l-7 .2 3 1.2c2.5 1 2.6 1.1 1.4 1.8-1 .5-2 .5-4 0-3.4-.7-3.8-.7-3.8 0q.1.4 1.6.8 4.3 1.2-1.2 1.4c-2.1 0-4.3.3-5.3.9q-1.6.8-3 .4a252 252 0 0 0-27.1-.2c.6 1-6.6 1-12.8 0a214 214 0 0 0-30-3.4c-3.9 0-9.6-.4-12.8-.8a330 330 0 0 0-19.8-2.1l-4.4-.6-6.1-.5c-2.2-.3-12.3-.9-19.6-1.1a412 412 0 0 1-18.8-1.2c-1.8-.2-8.9-.4-15.7-.6-6.9 0-15-.4-18-.6-3-.3-11.4-.5-18.6-.4-11 0-13.3.1-13.7.8q-.5 1-1 0-.4-.6-2.1-.4t-2.3-.3c-.3-.3-1.4-.6-2.4-.7s-2.3-.2-3-.4c-3.2-1-6.7-1.3-8-.7-1.2.5-4 0-3.6-.7.2-.2-2.5-.5-5.9-.6-9.1-.2-10-.3-11.1-1.1q-1.2-1.1-.8.2.3 1.1-.6 1-1-.3-2-.3-1.2 0-1.3-.4 0-.4-1-.8-.9-.3-.5.5.4 1-.3.5c-.4-.3-3-.5-6-.6-6-.2-5.1-.2-33.6-.1a494 494 0 0 1-29.6-.4c-1 .4-19 1-24.5 1-4.3-.1-9.3 2.4-6.5 3.3q.5.3-.7 1l-1.7 1.2c-.6 1-5.3 1.4-6.6.7q-1.3-.6-6.6-.5c-2.9.2-12.5.4-21.2.5a277 277 0 0 0-24.3 1c-3 .1-6 .5-6.7.8-1 .6-6.2 1.6-7 1.4q-1.9-.4-4.9.2a13 13 0 0 1-5.2 0l-6.4.6c-2.8.4-6.3.7-7.6.7s-2.7.2-3 .5c-.4.3-1.5.7-2.5.9q-2 .5-1.8-.6c0-.8-.4-.8-4-.5-2.2.2-8 .5-12.8.5a90 90 0 0 0-15 1.4q-.2 0 .4.9c.3.4 1.5.8 2.5.8q1.7 0 1.9.2l.3 1.1c.5 1.2-1 1.2-2.3 0q-1-1-1.2-.3t-.7.4-.5 0q-.1.5-1.3.6l-8.4.7c-4 .3-11.9.7-17.7.8s-11 .4-11.8.6c-2.6.5-16.7 1.8-24.3 2.2-14 .7-24.7 2.7-26.9 5q-1.2 1.3-2.8 1.4a252 252 0 0 0-28.5 2.5 83 83 0 0 0-9.5 1.4zm0-5q0-.9-1.1-.2-1 .7-.8 1.4.3 1 1.1.2.7-.6.8-1.4m93-8.2c2.2-.8 2.1-.8-2.5-.5-10.5.6-13.8 1-13.8 1.3 0 .7 14 0 16.3-.8m-256.4-6.6q0-.3-.9-.3-.7 0-.8.6.1.5.8.2zm40-2q.2-.4-1-.5-1.4 0-1.8.6-.2.5 1 .5 1.4 0 1.8-.5m-26.2-2.7q0-1-2-.2c-1.3.5-1 1.2.6.9q1.2-.3 1.4-.7m312.3-.1q2.8-.8 1.3-1c-1.5-.3-19 .4-28.5 1.2-2.5.2 17.2.8 21.3.6 2-.1 4.6-.5 6-.8m19.2-1.7c.6-.2-.5-.3-2.5-.3-4.7.1-6.6.6-3.6 1 1.2.2 2.8.1 3.6 0zm-352.3.1q1.6.1-.2-.5c-1.5-.6-2.8-.3-2.8.6q0 .5.9.3t2-.4m360.6-.6c.1-.1-.9-.3-2.2-.4-1.4 0-2.6.2-2.8.6q-.5.6 2.1.3 2.4-.2 2.9-.5m431.7-6.5q.2-.5-2.3-.5-3.4 0-1 .5c2.4.6 3 .6 3.3 0m-851-8.1q-.6-.3-1 0-.3.3.7.3t.4-.3m6.6-.7q1.5-.6.3-.5c-.6 0-1.6.2-2.2.5-1.5.6 0 .6 1.9 0m7.4.2q.8-.4.9-1.4c0-.8-.4-1-2.4-.7-2.5.4-4.2 1.3-2.2 1.3q1.1 0 1.5.6.5.9 2.2.2m896.9-9.6q0-.5-1-.6-1.2 0-.1.6c1 .6 1 .6 1 0M109.5 442q-.8-.2-1 0-.4.4.6.3 1 0 .4-.3m-4.6-1.6c0-1-1.5-1-3.5-.2q-3.2 1.4 1 1.2 2.5-.3 2.5-1m10.3.4c-.6-.9-2.5-1.1-2.5-.3q0 .8 1.4.8t1.1-.5m-4.2-.6q1-.6-1.2-.6-1.9 0-2 .6c0 .7 2.1.7 3.2 0m920.3-64.6q0-.5-.5-.6t-.6.6q0 .5.6.5t.5-.5m4-10.3q-.6-.3-1.3 0-.6.2.7.3 1.1 0 .6-.3m-8.2-6.7h-2.5q-.9.3 1.2.3 2.2 0 1.3-.3m-25.6-4.4c0-.3-2-.8-4.5-1.1l-6-1q-1.1-.4-.9.1c.2.3 2.5.9 5.2 1.3l6 1q.3 0 .2-.3M196.3 349q1.6-.6-.4-.5-1.3 0-1.8.5c-.4.6.7.6 2.2 0m801.4-3.3c0-.2-2.5-.7-5.6-1-6.8-.8-8-.9-7.4-.2.3.3 3.3.8 6.6 1l6.2.6q.2.1.2-.4m-832.4-6.6q.3-.4-.5-.4-.7 0-.8.4.1.5.5.5t.8-.5m74-1H238q-.1.4.8.3.9 0 .3-.3m-85.8-.7q0-.5-1-.6-1.2 0 0 .6c1 .7 1 .7 1 0m2.2-.9q0-.2-.5-.2t-.6.6q0 .5.6.2t.5-.6m31.5-3.8 5.3-.9a45 45 0 0 0 7.7-1.5c0 .2 3.8-1 5.6-1.8q4.3-2 .5-2.2-2 0-2-.8c0-.8 2.5-1.2 6.6-.9a22 22 0 0 0 8-1.5c1-.5-1.9-1-5.5-1.1a17 17 0 0 0-6.9 1.3c-2 .8-4 1.4-4.6 1.4q-1.4 0-.4.5.8.5 1.3.2.3-.1.4.3c0 .5-1.2.8-5.4 1.6-1 .1-2 .6-2.1 1q-.3 1-1.2.1-1-.9-.6.2.4.9-.8.8c-.7 0-2 .1-3 .4q-1.9.5-2.7-.2-.7-.5-.7 0c0 .5-4.3 2.3-5.7 2.3q-.9 0-1 .7-.2.8 3 .6a21 21 0 0 0 4.2-.5m22.7-20q-.7-.2-1.3.3t.7.2q1.2-.3.6-.5m666.9-2.2q-.2-.4-1.7-.6-1.6 0-1.4.5c.4.6 3 .7 3 0m-665-3.4h1.4l-1.3-.6c-1.5-.5-4-.1-4 .7q.1.6 1.3.3t2.6-.4m660.8.1q0-.3-.8-.4-.7 0-.8.4.1.5.8.5t.8-.5m2.4.1q-.8-.2-1.1 0-.2.4.7.3 1 0 .4-.3m-653.7-1q-.7-.2-1 0t.7.3q.9 0 .3-.3m-62-.7q0-.5-.5-.6t-.6.6q0 .5.6.5t.5-.5m14.4-1.5c0-.6-1 0-1.3.7q-.5 1.1.5.2zm5.5 0q0-.6-.2-.7t-.5.8q-.3.7.2.8.5-.1.5-.8m722.8-18.8h-1q-.3.4.7.3.9 0 .3-.3M393.4 274q.2-.4-.2-.8-.5-.3-.8.5c-.4 1 .5 1.2 1 .3m-262 237q-.6-.7-.2-.7t-.5-.6c-1.5-.9-.2-1.6 2.7-1.6q2.2 0 1 .4c-1 .4-1.8 1.8-.9 1.8 1.6 0 2.8-.8 2.6-1.6q-.5-1.2.5 0c1 1.2 5.1 1.4 5.5.3q.2-.7 1 0c1.1 1 1.8 3.1.9 2.8q-.6-.4-.5-1 .2-.8-.8.2c-.9.7-2 .9-6 .8q-4.7-.1-5.4-.8m-7.6-1.2c-.8-.5-.4-1.7.4-1.7.7 0 1.2 1.5.7 1.9q-.4.1-1.1-.2m11.6-4.5c-.6-1-.5-1.1.6-1.2l2-.1q2.3-.3.8 1.4-2 2-3.4 0m334.5-4q0-.3.5-.7.5-.2.6.3t-.6.6q-.5 0-.5-.3m6.4-.5q.7-.5 1-.3.2.2-.6.6-1.2.5-.4-.3M180 499.3q0-.5.9-1.2.8-.8 1.5 0 .8.7-.2 1.2c-1 .6-2.2.6-2.2 0m623.3-5q.1-.5.8-.6t1.2.6q.1.5-.8.5-1.1 0-1.2-.5m-9.4-.6c0-.6 1.5-.7 2 0q0 .4-.9.4t-1-.4m-547.5-.9q-.7-2 2.2-.5 1.6.7 1.3 1c-2.4.3-3.2.2-3.5-.5m477.4-1.3q0-.5.3-.5t.6.5q.2.5-.3.6t-.6-.6m-8-.5q-.3-.6 0-1c.5-.5 1 .2.7 1q-.2.9-.6 0m2 .2c-1-.5-.7-1.3.5-1q1 .4 1.1.8 0 .9-1.5.2m264.8-2.8q-1-1.1.4-1.3.8.1.9.8-.2 1.4-1.3.5M297.4 485q-.1-.4.8-.5t.8.4q-.8 1-1.6.1m5-1q.4-.7 1.2-.8l3.4-.3q2.7-.2 1.7.3-1 .7 0 .6.5 0 .4.3c-.2.2-1.9.5-3.7.6-2.8.1-3.3 0-3-.6M77 482.8c-.4-.6.6-1.3 1.4-.8.6.3.2 1.3-.6 1.3q-.5 0-.8-.5m5.2-14.3q0-.5.6-.9.5-.3.2.5-.7 1.5-.8.4m4-.3q.1-.8.5-.5t.2.8q-.7 1-.6-.3m962.2-72q-.7-.6-.3-.6.5 0 1.4.5.6.5.2.5-.6 0-1.3-.5m-907.1-41q.1-.5 1-.5 1.1 0 1.2.5-.1.5-1.1.5t-1.1-.6m23.1-8.2-1.3-1 3.3-.5c1.8-.2 4.6-.4 6.2-.4s3-.2 3-.4c0-.5 3.2.4 3.7 1q.2.3-1.4 0t-3.3.5c-.8.5-2.9.9-4.5 1s-2.9.2-2.9.4c0 .8-1.5.5-2.8-.6m-7 .2q.4-.3 1.1 0 .6.2-.3.3-1 0-.8-.3m-10-7.6q0-1 .3-.8.3.4 0 1.1-.2.6-.3-.3m15-4.7q.2-.5-.8-1.4c-1-1-1-1 2.3-2.6 4-1.9 4.4-2 4.4-.5q0 1-1 1.1-1 0-.1.5t1.8.3 1 .4q-.2.5-1.8.5h-2.9q-1.4-.1-.3.5t-.1.6q-.9 0-1 .5t-.8.6-.6-.5m7.1-4.4q-.8-.5.1-1.1c1-.8 1.6-.1 1 .9q-.4.5-1 .2M150.5 307q-.3-.5.5-.5t1.1.5-.4.6q-.8 0-1.2-.6m11.3-2.5q1.2-1.4 1.1-.3 0 .6-.9.8-1 .6-.2-.5m780.3-8.9c.6-.6 4.1-1.1 4.9-.7q.6.4.1.6c-3 .3-5.3.4-5 .1m-3.4-.6q-.7-.5 1-.5 1.5 0 1.6.5c0 .6-1.7.5-2.6 0m-14.2-.7c-2.4-.6-8-1-18.8-1.3-3.7-.1-7.2-.5-7.9-.8s-3.1-.6-6.1-.5h-5c0-.2 3.2-1.8 3.6-1.8q.3 0 0 .6t1.3.5 1.7-.5.6-.6.2.7q-.5.7.4.1.7-.5 1.9-.5l4 .2c1.6 0 2.8.2 2.7.5-.2.2 1.2.4 3.1.3 1.9 0 3.8.2 4.4.4q1 .6 1 0t.6-.2c.4.2 2.8.4 5.4.5a86 86 0 0 1 12 1.3c.5 0-2.1 1.7-2.6 1.6zm-22.3-2.8q-.1-.5-1.1-.5t-1.4.5q-.2.5 1 .5 1.4 0 1.5-.5m29.5-1.6q-.4-.5-.9-.2t-.5-.3c0-1 .9-1 1.6 0l.4 1q-.3 0-.6-.5m-11.8-2.2q-1-.8-1.3-.8a9 9 0 0 1-3 .5c-2.6.2-5.7-1-5-1.8.7-.6 4.5-.5 5.4.2.8.7 2.4.8 3 0 .7-.5 3.5-.4 3.9.2.5.9-.3 2.8-1.2 2.8-.4 0-1.3-.5-1.8-1m5.7.5q-.4-.6.2-.3.5.3 1-.2c.4-.8 1.1-.7 1.1.3s-1.8 1-2.3.2M280 284.2q.4-.4 1 0 .8.1-.3.2-1 0-.7-.2m111.4-15.7q0-.5.2-.6t.6.6q.2.5-.2.5-.6 0-.6-.5m12.8 0c-.8-.6-.6-1.6.4-1.3q1 .3 1-.6l.2-1.7q.2-.8 1.1-1h1.5q.5-.3 2-.7 3.2-.9 2.7-2-.1-.4.8-.5 1 .1 1.4.7t.7.1c.9-1 2.5-1.3 3.4-.6q1 .9.4-.1t.5-.4q1 .3 1.7.3.8.1 1.1 1 .4 1.1 1.3.9c1.4-.4 1.3-1.8-.1-1.5q-1.8.4 0-.3a9 9 0 0 1 2.9-.6c1 0 3.4-.2 5.2-.5a365 365 0 0 1 29.6-3.1l24.9-1.8c4.7-.4 12.2-.4 13.2 0l3.2.7c1.3.2 2.4.6 2.4.8l-1.4 1.8c-1.1 1.1-1.9 1.4-4.2 1.3q-2.6 0-2.5.5c0 .3 2 .6 4.4.6 3.7 0 6.1.8 5.3 1.6-.4.3-7.7.7-7.7.3 0-.1-1.7-.2-3.7-.1-2 0-5.2 0-7-.3s-3.2-.4-3.4-.3l-2.6.4c-1.3 0-3 .3-3.9.6q-1.5.3-2.2-.2c-.4-.3-3.1-.6-6-.7q-5.5-.1-5-.7.2-.5-.6.1-1 .9-3.2.4-2.2-.3-1.9.2c.4.7.3.7-4.7.8-2 0-4.1.3-4.8.5q-1.2.4-1.3 0t-1.3-.4-1.4.4q0 .3-.9.4-.7 0-.5-.5c.3-.6-5.3.3-5.7 1-.8 1.1-11.1 2.3-11.1 1.2q0-.5-.6-.6t-.3.5c.5.8-.8 1.3-1.6.6q-.7-.6-1 .2-.3.6-2.5.6-2.1-.2-2.3.3c0 1-2.9.4-3.4-.7q-.6-.8-1-.6-.6.3-.3.7.1.5-.5.8-.8.2-1.2-.2t-1.8.3c-1.7 1-7 2-7.7 1.4m-7.9-2.5q.1-1.4.8-.3.3.5-.2.8t-.6-.5m2.1-1q.7-.4 1.3-.3.6.3-.6.6-1.2.4-.7-.2m190.2-1.3q-1.1-.4-1.2-.7c0-.7 2.4-.3 2.6.4v.6zm-11.4-1.3c1.5-.6 2.3-.6 1.3 0q-.8.5-1.6.5t.3-.5m3.3 0q-.2-.3.8-.2 2 .7.3.8-.8-.1-1.1-.5m-71-1.2c-1-.9-.6-1 6.3-1 4 0 7.8-.1 8.5-.3q1.1 0 1.5.3.4.4 2 .3c2.5-.2 2.5.6 0 .9q-1.9.1-2-.2c.5-.8-.3-.5-1.2.4-1 1-3.2 1-3.8.2q-.3-.4-1.4 0c-1.2.7-2.4.3-1.8-.6q.3-.6-.4-.1c-.4.2-2.1.6-3.8.7-2.4.3-3.2.1-4-.6m44.2.7q0-.6.2-.6t.6.6q.2.5-.2.5t-.6-.5m-22.1-1.2q-.8-.5-.2-.5t1 .5q.8 1-.8 0m215.6 0c.3-.5-1.8-1-2.2-.6-.6.6-3 .7-3 .1q-.1-.5-4.3-.2c-3.4.3-4.7.1-6.2-.6q-1.8-.8-1-.6t1-.3 1-.6 1.3-.7.4.6c0 1.2.1 1.2 1.5.4s1.6-.7 2.3.2q1 1.5.5 0-.5-1 1-1 1.2.1 1.9 1 .5.8.5.3c0-.7 1.7-1 1.7-.3 0 .2 1.9.4 4.2.4s4.3.2 4.4.4q.4.4 1.5.4 1.4 0 .5.7c-.7.7-7.4 1-7 .4m9.1 0q0-.5.4-.5l2.2-.3c2.2-.3 3 .6.9 1q-3.3.6-3.5-.2m-39.7-1.9c0-.3-1-.5-2.1-.5q-2 0-2.5.5t-.4 0c0-.7-3.3-.8-3.3-.2q-.1.5-.5.2c-.6-.3-5.4-.8-10.6-1l-3-.4c0-.3-7.3-.4-7.7 0-.9.7-6.4 1.1-6.4.5q-.1-.4-.8-.5t-.8.6c0 .3-4 .4-10.4.2l-11.7-.2c-.7 0-2.1-.2-3.2-.5q-1.6-.5-1.8 0c0 .5-2 .4-2.4-.1-.2-.2-2.7-.2-5.6-.1q-5.3.2-6.1-.5t-.8.2q0 .6-.4.1a27 27 0 0 0-7.9-.6 6323 6323 0 0 1-76.7-1.1q0 .3-.6.4-.5 0-.2-.6t-.6-.5-.8-.6-.6-.5q-.4 0-.3.5t-1.4.6q-2 0-1-.6t0-.5q-.8 0 .2-.9.8-.7 2-.8 1 0 1-.6t1.2-.2.8-.2 0-.6.7 1l.5 1.2 1.4-1.1q1.5-1.2 1.9-.5t.8-.2c.4-.6 4.2-.7 20.2-.7a1147 1147 0 0 1 49.9 1c20.2.7 25.5 1 26 1.2a13 13 0 0 0 6 .8q.8-.4 1.2.2t1-.2.5-.3c0 .4 3.5.6 9.3.5 9.2 0 25 .9 25 1.4 0 .2 1.9.3 4.3.3 4 0 13.3.7 15 1.2q.7.2 0 1-.9 1.1 0 .7l2.4-.6q1.5-.4 1.2-1-.2-.6.3.2c.5.7 1.2.8 3.7.4 1.8-.2 3.5-.2 4 .1q1 .5 2.6.6 2 0 .2.3-1.5.2-.6.8c.9.5.2.6-7.6.7-2.7 0-4.5-.2-4.5-.5M556 254q-.3-.6-.8-.5c-.8.5-.6 1.4.3 1.4q.8 0 .5-.9m-32.2 2q.9-1.5-.2-1t-.3-.8l.7-1.2.5 1.2c.6 1.4 1.8 1.6 2.2.4q.3-.8 0-.8-.5 0-.5-.9c0-.6.5-.7 2.6-.4q2.8.3 2.7-.3.2-.6 2-.6 2 0 1.6.6t.7 0q1.4-.9.9.2-.4.7-.8.8-.5 0-.5.6c0 1.1 1 .5 1.6-1.1.8-1.9.8-1.9 2.2-1.2q1.1.6.7 2-.1 1.3.2 1.3.5-.2.8.3c.2.4-1.2.6-3.2.7-3.2 0-3.6 0-4.1-1.3-.6-1.3-2.6-1.8-2.6-.7q0 .5.5.2t.2.5-1.2.5-.4.3c.4.7-1.4 1.3-3.6 1-.7 0-1.8.1-2.4.4q-1.3.7-.3-.8m15.1-2.1q.3-.5-.5-.5-.6 0-.5.5l.5.4zm-22.5 2.1q-.2-.4.8-.7 1.1-.3.7-1.2-.2-.8.2-.9c.8 0 .6 1.8-.2 2.6q-1 1.3-1.5.2m3.3-1.5.5-.7.4.7q.3.7-.4.7t-.5-.7m2.2-1.5q1-.8 2.3-.9c1.3 0 2.1.8 1.3 1.4q-.5.2-.7-.4t-1.4 0c-1.7 1-2.8.8-1.5-.1m-7.4-.1q.4-.3 1.1 0 .6.1-.3.3-1 0-.8-.3m29.2-.2q-1.1-.7 0-.6 1 0 1 .6c0 .6 0 .6-1 0m-3-.9q-.5-1 .8-.2 1.9 1 .3 1-.8 0-1.1-.8"/></svg>