<svg xmlns="http://www.w3.org/2000/svg" width="250" height="313"><path fill="#5B461D" d="M112 1c4 0 6 1 9 3l1 5-3 4h-3c0 6 1 11 4 16v3h2l1 5-2 3 1 4v3l3 7v3h3a78 78 0 0 1 16 2c17 3 33 10 45 23 4 6 4 11 3 18l-3 7v2h-2l-6 3c-8 3-15 1-23-2-15-7-28-19-37-33-16 2-34 11-44 24l-3 3h-2l-1 2-4 7c-5 7-12 20-11 29l1 2c2 9 2 9 1 13l-2 2c-2 4 0 8 1 12 6 15 15 25 30 32l18 3h4c7 0 11-2 16-6l6-2 3-2 5-3c4-1 8-4 11-7 3-2 6-4 10-4v-2c1-4 2-4 5-6l2-1c4-1 5-3 7-6l3-4h2l1-2 4-7 8-13 3-4c5 0 8 1 11 4 17 19 27 43 32 67v2a159 159 0 0 1 3 38c1 15-1 29-5 43l-1 2-7 15-2 3h-8l-6-2v-2l-2-1-5-4-2-1-2-2c-9-7-9-7-19-10l-4-3c-3-3-7-3-11-4l-5-1-2-1-8-2h-3l-9-1c-6-2-11-2-17-2-27-1-53-9-74-25v-2l-2-1c-8-4-14-12-19-19l-2-2a92 92 0 0 1-15-70l1-2v-6c0-5 1-8 4-12l4-10a117 117 0 0 1 21-31 107 107 0 0 1 71-37l-1-2-2-13-5-1-1-5 1-1 1-11c1-4 1-7 3-10l-2-8 1-4c2-2 2-2 5-2Zm24 74c6 9 14 16 25 20h8l1-1c0-3 0-6-2-9-7-7-19-10-29-10h-3Z"/><path fill="#B49151" d="M30 144c8 0 15 2 21 8l2 6v3l1 4c4 15 11 27 25 36 13 7 25 9 40 6v2c-3 11-3 23-1 35l2 10-3-2v-3h-2a80 80 0 0 1-35-5l-19-10-3-1c-16-11-33-37-37-56-2-10-2-22 1-32 2-2 5-1 8-1Z"/><path fill="#261912" d="m195 137 4 2h-2c-3 1-4 4-6 7l-9 16-1 1-7 8a2543 2543 0 0 1-12 36v3c0 5 3 7 7 10 5 6 6 12 5 19 0 5-1 8-3 12l-2 8h4c6 0 12 1 17 4l4 7a1963 1963 0 0 0 4 8l1 2c2 4 3 6 3 10l3 1 3 4 5 7 3 3 8 4v1c-6 1-9-2-14-5a522 522 0 0 1-15-12v-2l-2-1c-4-1-5-3-7-6v3h-5l-2-3-3-3h-7l-15-4-9-1-1-2-3-3c-6-3-9-12-11-18a125 125 0 0 1-3-11v6c-5-5-5-15-5-22v-6c0-6 1-11 3-17h-2v2h-2l-1 3v-2l-2-1 13-7 3-2 5-3c4-1 8-4 11-7 3-2 6-4 10-4v-2c1-4 2-4 5-6l2-1c4-1 5-3 7-6l3-4h2l1-2 4-7 8-13 3-4Z"/><path fill="#5F4B28" d="M22 146v4a79 79 0 0 0 20 64l1 2 5 5 1 2 7 6v2l2 1 9 5 17 8 3 1c9 3 20 3 30 3l1 2 4 5 2 4 7 12c-13 0-25 0-38-3l-3-1c-15-4-31-12-43-22l-2-2c-18-14-30-37-34-60-1-12-1-24 4-35 3-2 3-3 7-3Z"/><path fill="#B49151" d="M114 60a978 978 0 0 1 6 15l-3 1c-24 7-42 20-55 42-4 7-6 14-8 22l-6-3-2-1-2-1c-5-2-9-2-14-2h-7c0-5 1-9 4-14l5-10 3-5h2l1-2c10-19 36-32 55-39l21-3Z"/><path fill="#B39151" d="M30 144c8 0 15 2 21 8l2 6v3l1 4c4 15 11 27 25 36l19 7v4l2 2-3 1v2l-3 4-10 1-3-1h-3v-2l-6-1v-2l-3-1-8-4v-2l-2-1c-4-1-6-4-8-7l-1-2a90 90 0 0 1-11-17c-4-10-5-21-5-31l-3-1-1 23v12h-4c-2-3-2-5-2-9h-3l-1-13v-2c0-17 0-17 10-17Z"/><path fill="#B29151" d="M195 139h5l-3 3c-16 19-15 54-14 77 1 13 4 26 8 38v9l-1-3c-7-3-14-3-21-4l3-12c2-6 2-14 0-20-2-5-5-8-9-11-2-1-2-3-2-5-1-12 4-22 8-33l1-3c1-3 3-4 5-6 8-9 15-19 20-30Z"/><path fill="#B19051" d="m113 36 4 1 2 5 1 3 1 3 6 14v-3a87 87 0 0 1 52 16l3 5-1 4v4c0 7-3 12-8 16-4 3-8 3-13 2a45 45 0 0 1-14-9c-9-8-16-16-21-27l-3-6c-5-8-9-18-9-28Zm23 39c6 9 14 16 25 20h8l1-1c0-3 0-6-2-9-7-7-19-10-29-10h-3Z"/><path fill="#B39251" d="M88 71h2l-8 6-2 1-4 1-3 3-1 2-4 3-4 5h-2l1 6h7l-1 4 3-1v-2l4-9h8v-2h2v-2l3 1-8 7a87 87 0 0 0-27 46 280 280 0 0 1-8-4l-2-1c-5-2-9-2-14-2h-7v-7l3-3 2-1 2-5 4-5h3l1-2 1 4 3-6h2l1-2 3-6h2l1-2 4-3 1-2c1-3 4-5 7-7l1-2 17-11 7-2Z"/><path fill="#5F4B28" d="M110 2c3 0 6 0 9 2l1 5-1 2-4 1 1 5v3l2 5v4l3 5-1 5-3 1-1-3-3-1c3 15 3 15 10 29l4 7c5 12 18 26 30 32l8 1h3l6-3h2l1-2 2-5 2-10v-7c5 2 7 5 9 9 2 6 1 10-1 15-2 4-6 6-10 9-13 2-23-2-33-9-9-8-17-15-23-25l-1-2h-2v-2l-3-8c-4-9-8-18-7-28h-2l1 4-4-1v-3l1-8c1-6 2-11 5-17l1-2-4-1V4l2-2Z"/><path fill="#D2BA89" d="m31 149 4 2 1 6c0 15 5 29 14 41l2 2c4 6 4 6 9 9v2h2l9 5v2l6 1v2l29 1-3 4a59 59 0 0 1-44-4v-2l-4-1v-2l-2-1c-4-1-6-3-8-6v-2h-2l-3-3-1-2-4-7c-8-13-9-31-6-46l1-1Z"/><path fill="#0D0602" d="M197 137c6 1 9 4 13 9 14 18 23 39 28 62v2a159 159 0 0 1 3 38c1 15-1 29-5 43l-1 2-7 15-2 3h-8l-6-2v-2l-2-1-5-4-2-1-2-2c-9-7-9-7-19-10l-4-3c-3-3-7-3-11-4l-5-1-2-1-8-2h-3l-9-1c-6-2-11-2-17-2-27-1-53-9-74-25v-2l9 5 16 8 3 1c9 5 18 7 28 9h2l25 2 1-2 6 3-2-3c-8-12-12-24-11-39h1l1 3v5l1 2 2 8v3c2 8 7 17 14 22h7c3 0 5 1 8 3l13 2h4l3 5 6 2-1-4 3 1 1 2c1 3 3 3 6 5v2l2 1c4 1 6 4 10 6 6 7 6 7 14 9l-2-1-8-7-3-3-4-7-2-1-2-4-4-10c-7-13-10-28-12-42v-2l-1-24h1v2c2 28 6 57 24 80l1 4h2v2c1 3 3 5 6 7l2 2 8 1 1-3 3-8c10-24 10-50 6-75v-4l-6-24-1-3c-5-16-13-36-27-46l-2-1v-3l-4-2Z"/><path fill="#684F0D" d="m138 204 10 1 1 11h2c3 4 3 4 3 7h-2l-4 1h-3l-7 2v2l3-2c5-2 10-3 15-2 3 1 6 3 8 6 0 4 0 6-2 10-5 5-10 6-17 5-4 0-6-1-8-3-2-3-2-6-2-10a214 214 0 0 0 0-11v-2c0-6 1-10 3-15Z"/><path fill="#846C3E" d="M235 238h2c0 13 1 25-2 38v3c-1 6-3 12-8 17-6 1-10 0-15-4l-2-1c-10-7-16-20-19-32l1-4 2 2c7 10 13 16 24 21a102 102 0 0 0 9 1v-2l1-2v-2l2-6 2-9 1-4v-3l1-4 1-9Z"/><path fill="#180E04" d="M112 1c4 0 6 1 9 3l1 5-3 4h-3l-1 3-1-4 5-2-1-5c-3-2-4-2-7-2l-2 1v5l3 1-2 9h-2v8l-1 3v4l-1 6h2v-3h2l1 3c1 10 4 19 8 28l2 3-1 2c-3-4-5-8-6-13-30 5-56 18-76 42l-1 2h-2l-1 2-4 7c-3 3-4 7-6 11l-6 12 4-1v8h6v1l-2 1h-2l-3 1-5 3c-8 17-5 38 2 55 3 8 7 15 12 22l2 2c5 7 10 13 17 19-5 0-6-3-10-6l-11-13-2-2a92 92 0 0 1-15-70l1-2v-6c0-5 1-8 4-12l4-10a117 117 0 0 1 21-31 107 107 0 0 1 71-37l-1-2-2-13-5-1-1-5 1-1 1-11c1-4 1-7 3-10l-2-8 1-4c2-2 2-2 5-2Z"/><path fill="#2F1A10" d="m136 196 1 3-2 3h-2c-4 27-4 27 4 53v-5l6 9 1 2 2 7h2l1 2h2c6 0 11 0 16 2l-2-1c-3-3-5-7-5-12v-5h1v2c3 9 6 14 14 19l1 3 2 1-1 4-1-2h-3c-6 0-13-2-19-4l-9-1-1-2-3-3c-6-3-9-12-11-18l-1-4-1-3-2-9h-1c0-12 0-23 4-35l-3-1h2c4-1 5-3 8-5Z"/><path fill="#5B4A2B" d="M169 259c7 0 15 0 21 4l4 7a1963 1963 0 0 0 4 8l1 2c2 4 3 6 3 10l3 1 3 4 5 7 3 3 8 4v1c-6 1-9-2-14-5a522 522 0 0 1-15-12v-2l-2-1c-4-2-5-4-7-8-3-6-7-10-12-14l-5-7v-2Z"/><path fill="#5F3720" d="m30 112 1 2-2 3c-4 5-5 10-6 16h3c7-2 13-1 20 2v3l2 1c4 2 7 4 9 8v8l-3 2-1 5h-1l-1-10-3-1v-2l-3-1-5-2a46 46 0 0 0-13-2l-5-1v-8l-4 1 5-14 1-2c2-3 3-6 6-8Z"/><path fill="#633F2A" d="M169 175c1 4 1 4-1 8l-1 2-1 3c-5 12-5 12-4 25l7 7c5 6 6 12 5 19 0 5-1 10-4 14l-2 1-2 4c-2-4-1-8 1-13 1-6 2-11 0-17l-2-2-4-8h-2c-4-8-4-15-1-24l3-5 1-9 2-4 5-1Z"/><path fill="#D4BB8B" d="M88 71h2l-8 6-2 1-4 1-3 3-1 2-4 3-4 5h-2l-1 2-4 6c-3 3-5 5-6 9l-3 5h-2v3c-1 4-3 8-6 11l-5 1-1-5h2v-3c1-5 3-9 6-13h2l1-2 3-6h2l1-2 4-3 1-2c1-3 4-5 7-7l1-2 17-11 7-2Z"/><path fill="#5B453B" d="M137 196h2l-2 6c-3 8-3 15-3 23v3c0 9 0 9 2 17l3 1v2l12 1h6v11h-15l-4-7-1 3c-10-13-8-33-6-48 1-4 2-6 5-9l1-3Z"/><path fill="#B0915C" d="M127 59c13 0 24 3 36 7l-1 2-2-1-18-3v4h-4v2h-2v2h3l6 2 7 2c7 1 11 3 16 8l3 3 1 5-3 5c-9 1-16-2-23-8-9-8-17-17-19-30Zm9 16c6 9 14 16 25 20h8l1-1c0-3 0-6-2-9-7-7-19-10-29-10h-3Z"/><path fill="#201306" d="M108 78v2l-3 1c-11 6-22 11-30 22l-1 1h-2l-1 2-4 7c-5 7-12 20-11 29l1 2c2 9 2 9 1 13l-2 2c-2 4 0 8 1 12 6 15 15 25 30 32a46 46 0 0 0 22 3h5v2c-6 3-16 1-23 0-15-6-27-16-34-30-3-8-5-15-4-23h3c0-7 0-7-2-13l-4-2-4-2v-2l8 4v-3a74 74 0 0 1 25-42c7-7 19-17 29-17Z"/><path fill="#5C453B" d="m138 204 10 1 1 11h2c3 4 3 4 3 7h-2l-4 1h-3l-7 2 1 3-4 1a686 686 0 0 1 0-11c0-6 1-10 3-15Z"/><path fill="#846C3D" d="M230 217h1c1 8 1 8-2 12-11 8-31 4-43 4l-1-4c2-2 5-1 8-1a196 196 0 0 0 22-3c4 0 8-2 12-4h2l1-4Z"/><path fill="#170C06" d="m137 250 6 9 1 2 2 7h2l1 2h2c6 0 11 0 16 2l-2-1c-3-3-5-7-5-12v-5h1v2c3 9 6 14 14 19l1 3 2 1-1 4-1-2h-3c-6 0-13-2-19-4l-9-1 4-2v-2h-2l-3-3-1-2c-1-3-1-3-4-5l-1-6-1-3v-3Z"/><path fill="#1B0C05" d="M110 2c3 0 6 0 9 2l1 5-1 2-4 1 1 5v3l2 5-2 4-5-1v3c0 4 0 4-2 6v4l-4-1v-3l1-8c1-6 2-11 5-17l1-2-4-1V4l2-2Z"/><path fill="#0D0501" d="M197 137c6 1 9 4 13 9 14 18 23 39 28 62v2c3 12 3 24 3 36v2c0 10 0 20-2 30h-1v-17c2-14 1-27-1-41v-4l-6-24-1-3c-5-16-13-36-27-46l-2-1v-3l-4-2Z"/><path fill="#BF932D" d="M156 224c3 3 3 5 3 9-6 4-11 5-18 4l-5-2c0-4 1-5 4-8 5-3 10-4 16-3Z"/><path fill="#26150F" d="m118 241 4 10 5-1 1 4h2l1 3 5 9 3 8h-2l-5-1h-18v-1l16-1-3-4c-6-9-9-16-9-26Z"/><path fill="#341F07" d="M183 208h1v2c2 28 6 57 24 80l1 4h2v2c1 3 3 5 6 7l4 4-6-1-10-13-3-3-2-4-4-10c-7-13-10-28-12-42v-2l-1-24Z"/><path fill="#663E2B" d="M28 134c6 0 12 0 18 2v2l2 1c4 2 7 4 9 8v8l-3 2-3-9c-1-3-2-4-5-6l2 4-14-3 6-3v-2l-7-2h-5v-2Z"/><path fill="#613C2E" d="M137 196h2l-2 6c-3 8-3 15-3 23v3c0 5 0 12 2 17l3 2-1 9c-7-7-8-18-8-29 0-22 0-22 5-27l1-1 1-3Z"/><path fill="#1F1106" d="m129 66 5 6 4 1h3l5 1a40 40 0 0 1 23 11l3 4c0 5 0 5-3 8-9 1-16-2-23-8s-12-13-17-21v-2Zm7 9c6 9 14 16 25 20h8l1-1c0-3 0-6-2-9-7-7-19-10-29-10h-3Z"/><path fill="#0B0602" d="M112 1c4 0 6 1 9 3l1 5-3 4h-3l-1 3-1-4 5-2-1-5c-3-2-4-2-7-2l-2 1v5l3 1-2 9h-2v8l-1 3v4l-1 6h2v-3h2a14099 14099 0 0 1 4 22h-5l3-1-1-2-2-13-5-1-1-5 1-1 1-11c1-4 1-7 3-10l-2-8 1-4c2-2 2-2 5-2Z"/><path fill="#231308" d="M108 78v2l-3 1c-11 6-22 11-30 22l-1 1h-2l-1 2-4 7c-5 8-8 16-10 25l-3 3-2 1-6-4v-2l8 4v-3a74 74 0 0 1 25-42c7-7 19-17 29-17Z"/><path fill="#AF9055" d="M115 229h1v3l4 22-3-2v-3h-2c-21 1-21 1-31-3 3-2 4-2 8-2h4v2h17v-7l2-10Z"/><path fill="#311B14" d="m156 198 1 8 2 12h2l4 6 3 4c3 7 1 14-1 20h-3v8h-2l2-14c1-6 2-10-1-15l-7-8c-2-4-2-7-2-10v-3l2-8Z"/><path fill="#623E2C" d="M125 202h4v2l-1 2v3l-1 2-1 2v16l1 19c-5-5-5-15-5-22v-5c0-7 1-13 3-19Z"/><path fill="#100A03" d="M10 181h2l1 4a91 91 0 0 0 19 43c5 7 10 13 17 19-5 0-6-3-10-6l-11-13-2-2c-8-12-17-30-16-45Z"/><path fill="#6F5425" d="M159 184c0 4-1 6-3 8-6 5-8 7-16 7 2-5 4-7 9-10l2-2c3-2 5-3 8-3Z"/><path fill="#221813" d="m134 231 2 1v3l1 7c6 3 12 3 19 1l6-3-3 4-3 1-2 1-2 1 3 3h-8l-8-2v-2h-2l-1 3c-2-6-2-12-2-18Z"/><path fill="#624C14" d="M151 272c10-1 17 2 25 8v1c-8 1-17-1-23-6l-2-3Z"/><path fill="#3F2E0C" d="M110 2c3 0 6 0 9 2l1 5-1 2-4 1-1 5h-4l2-7-4-1V4l2-2Z"/><path fill="#45200C" d="M166 184c1 4 0 5-1 9-3 7-4 13-3 20l7 7c4 5 5 10 5 16v4c0 3 0 3-2 5l-1 1 1-2c1-8 1-14-3-20l-7-7c-3-3-3-7-3-12 0-4 2-7 3-11l2-6v-3l2-1Z"/><path fill="#705009" d="m135 232 1 3 11 1h2l8-2v2l-2 1 2 5h-17v-2h2v-2h-7v-6Z"/><path fill="#AD905A" d="M164 67a879 879 0 0 1 9 4c6 3 6 3 8 6v11l-1 8h-2V85l-1-3v-2l-2-5-5-1v-2l-2-1-3-1-1-3Z"/><path fill="#4F3719" d="M184 179h1l-1 13h2v16h-3v11h-1c0-27 0-27 2-40Z"/><path fill="#A98D5E" d="M195 139h5l-3 3c-5 6-7 14-10 22l-2-3-1 2h-2v2l-4 1a615 615 0 0 1 17-27Z"/><path fill="#3D2312" d="m111 28 7 1 3 5-1 5-3 1-1-3-4 1-1 7h-1a563 563 0 0 1-1-7v-2l1-1 1-7Z"/><path fill="#2B1B15" d="M173 273h5l5 5 4 3-1 6-7-1-1-7-3-1-2-5Z"/><path fill="#130602" d="M53 141h2c3 4 4 8 4 13l-3 5c-2 4 0 8 1 12 2 6 5 12 9 17-5-2-7-5-9-10-3-8-5-15-4-23h3c0-6 0-9-3-14Z"/><path fill="#2C1815" d="M22 137v6h6v1l-2 1h-2l-3 1c-3 1-5 3-7 6l-1-8h2v-2c1-4 3-5 7-5Z"/><path fill="#1C0A05" d="M126 232h1l1 3v5l1 2 2 8v3c2 7 6 14 12 19v2h-4l-4-6-2-2c-5-11-8-22-7-34Z"/><path fill="#504123" d="M13 155c2 2 2 2 2 5h2v10l-1 6-2 1-1-9-1 13h-1a1029 1029 0 0 1 2-26Z"/><path fill="#AF9044" d="m127 59 17 1v1l-6 1-1 5-3 1v-2h-4c-2-3-3-3-3-7Z"/><path fill="#AC8F5F" d="m60 114 4 1-1 3c-4 7-7 14-9 22l-4-2 1-4h2l1-8h2v-2c0-4 1-4 3-6l1-4Z"/><path fill="#55482F" d="M127 73c3 4 3 6 3 11h2v2h2v2h2l1 5c-6-4-9-9-13-16l-2-2h-2v-2h7Z"/><path fill="#150804" d="M156 219c8 7 8 7 10 11 1 8-1 17-5 23v-7l1-3 1-6c1-5 0-6-2-10l-3-3-2-5Z"/><path fill="#5D491E" d="M136 238h6v2h-2v2l16-1v-1h5c-3 3-6 5-11 5-9 0-9 0-13-3l-1-4Z"/><path fill="#553219" d="m46 142 4 2 1 3 2 1-1 3 1 2v9h-1l-1-10-3-1v-2l-16-5v-1c5 0 8 0 12 2h3l-1-3Z"/><path fill="#D4B780" d="m90 71-8 6-2 1-4 2h-2l-2 4-5 4-1-2c2-5 5-7 10-9l3-2 3-2c3-2 4-2 8-2Z"/><path fill="#D3BD8F" d="m37 179 4 3 1 2 1 2-1 5-2 2-4-1v-9l3 1v-2h-2v-3Z"/><path fill="#AA8F61" d="m57 178 6 7c3 5 6 8 11 12l3 3h-5l-1-2-3-1v-3h-2l-2-1-1-3-2-1-1-5h-2v-2l-2-1 1-3Z"/><path fill="#6A4F2A" d="M169 259c8-1 14 1 21 4l1 3h-5v-2l-2 1-1 3-1-2h-2v-4l-11-2v-1Z"/><path fill="#190F05" d="M150 62c10-1 20 4 28 10l-1 3-2-1-18-9-7-3Z"/><path fill="#A98F5C" d="M114 63c3 1 3 2 4 5l1 2 1 5-13 3-1-2 8-2v-2h2l-1-2-1-7Z"/><path fill="#27160F" d="m117 27-1 2-5-1v3c0 4 0 4-2 6v4l-4-1 1-6v-3l1-3c3-2 6-1 10-1Z"/><path fill="#574D2F" d="m30 112 1 2-2 3c-4 5-5 11-5 17l-6 2 5-14 1-2c2-3 3-6 6-8Z"/><path fill="#533E1A" d="M239 235h1v13l-1 18h-1l-1-22h1l1-9Z"/><path fill="#200E03" d="m168 259 2 3 11 11 4 5-1 4-1-2c-3-4-3-4-8-7h-2l2-2-2-2c-3-2-4-3-5-6v-4Z"/><path fill="#A98E61" d="M115 229h1v3l4 22-4-4v-3l-1-3v-2h-1v-8l1-5Z"/><path fill="#A38556" d="m38 101 1 2-2 3v3c-1 4-3 5-6 8l-2 3-4 3 3-6 5-10 2-3h2l1-3Z"/><path fill="#B49547" d="M178 192h4v10h-2v6h-2v-16Z"/><path fill="#D0B680" d="m31 149 4 2v10l-5-1a758 758 0 0 1 0-8l1-3Z"/><path fill="#5B371F" d="M168 240v2l3 5-1 6-2 1-2 4c-3-6 0-12 2-18Z"/><path fill="#B1925F" d="M117 207h2l-1 11-1 3v6l-3 5v-16l1-1 1-3 1-5Z"/><path fill="#5D4B2E" d="M236 215h1c2 9 2 18 2 27h-1l-1-7h-1v-20Z"/><path fill="#B2945D" d="M163 195h1v19l-3-1v-10l2-8Z"/><path fill="#391B11" d="m136 196 1 3-2 3h-2l-2 18h-1v-11c0-4 0-6 2-10l4-3Z"/><path fill="#CFB47D" d="M91 222h16l-3 4-7 1-1-2h2v-2h-7v-1Z"/><path fill="#A28449" d="m47 91 5 2v2l-4 1v4l-2-1-6-1 7-7Z"/><path fill="#D4BE93" d="m42 193 4 1-2 4h2l2 3-1 3-1-1-1 3h-2l1-4-2-1v-8Zm-2 2 2 3h-2v-3Z"/><path fill="#23110A" d="m137 250 6 9 1 2 2 7h2l1 3-2 1c-3-2-4-4-5-7l-3-3-1-6-1-3v-3Z"/><path fill="#60391E" d="M169 175c1 4 1 5-1 9l-4 1-1-8 6-2Z"/><path fill="#2E1B0D" d="m154 218 5 5-1 2h-2c-6 0-11 0-16 3h-2v-2c6-3 10-3 16-3l-1-2v-2l1-1Z"/><path fill="#512C0C" d="M166 184c1 4 0 5-1 9-3 6-4 11-4 17l-2-4c0-5 1-9 3-13l2-5v-3l2-1Z"/><path fill="#452B0C" d="m200 139 1 3-3 3h-2l-6 15h-1c0-8 3-14 9-20l2-1Z"/><path fill="#A88D5B" d="M87 66v2l-4 1v2l-3 1 4 1h-5l-2-1-1 2h-5l9-6 3-1 4-1Z"/><path fill="#251504" d="M207 295c4 1 5 2 8 5l6 7-6-1-8-11Z"/><path fill="#120A03" d="m98 62-10 4-3 1-2 1-3 1h-5c17-9 17-9 23-7Z"/><path fill="#34170C" d="M120 218h1l1 8v3l1 11h-3v-22Z"/><path fill="#AC8F43" d="m153 186 2 1c-7 9-7 9-13 10 0-3 1-4 3-6l3-2 3-2 2-1Z"/><path fill="#806738" d="M236 253h1v11l-3 1-2-1v-8h3l1-3Z"/><path fill="#38201A" d="m124 242 2 6h2l1 6-2-4-5 2v-6l1-2 1-2Z"/><path fill="#5E4824" d="m181 78 5 4 1 6h-5l-1-10Z"/><path fill="#947C4E" d="m113 6 3 1-2 10h-4l1-5V9l2-3Z"/><path fill="#B4955B" d="m174 252 2 2-3 4h8v1h-12v-5l5-2Z"/><path fill="#634D21" d="M159 184c0 3 0 5-3 8l-5 4-1-2h2v-2h2v-7l5-1Z"/><path fill="#1A0D03" d="m134 231 2 1v3l1 7 5 2-3 1-2-1v5c-3-6-3-11-3-18Z"/><path fill="#B79A60" d="m84 217 2 2 6 1-1 2-13-1v-2l-2-1 8-1Z"/><path fill="#221608" d="m121 51 3 1 1 5h5l-1 2h-2l2 7c-3-2-4-5-6-8l-1-3-1-4Z"/><path fill="#372217" d="m116 23 1 4-10 1 1-4 8-1Z"/><path fill="#BA8E21" d="M151 224h5l-2 1v5h-4v-5l-7 1c3-2 4-2 8-2Z"/><path fill="#CEB57F" d="m45 104 3 2h4l-3 6h-3v-4l-2 2h-2v-2h2l1-4Z"/><path fill="#B69458" d="m50 90 5 2 1-2c0 4-1 4-3 7l-1 2-4 1v-4l4-1v-2l-4-2 2-1Z"/><path fill="#5B4926" d="M112 50h4l2 8h-4l-2-8Z"/><path fill="#1A1006" d="M113 2c4 0 5 0 8 2l1 5-3 4h-3l-1 3-1-4 5-2-1-5-5-2V2Z"/><path fill="#594A32" d="m49 245 3 1v2h4v2h4l2 4c-5 0-8-3-12-6l-1-3Z"/><path fill="#120400" d="M160 179h1c0 5 0 9-3 13v-5l1-3-6 1c4-3 4-3 7-3v-3Z"/><path fill="#CCB17A" d="M29 160h1l1 6h1v8l-2 4-1-18Z"/><path fill="#140E05" d="M189 98h1l-1 11-9 1 2-2c5-4 5-4 7-10Z"/><path fill="#AD8C4B" d="M23 144h5v5h2l-1 4-3-2-1 2 1-7-3-1v-1Z"/><path fill="#B29561" d="m24 130 1 2h2v-2h12l-1 2-8 1h-7l1-3Z"/><path fill="#BF973F" d="m147 225 1 5-10-1c3-3 5-3 9-4Z"/><path fill="#392414" d="M120 211c2 4 2 6 2 10v7h-1v-5l-1-3-1-4-2 1 3-6Z"/><path fill="#6A5328" d="M181 82h1v6l3-1 1 4-4 1v2h-2l1-12Z"/><path fill="#B5975D" d="m79 77 1 3h-2v3h-2v2l-6 1c3-4 5-7 9-9Z"/><path fill="#A68F5A" d="m96 78 5 2-11 7 1-4 5-1v-4Z"/><path fill="#9B8E66" d="M111 2c7 2 7 2 9 4l-1 5-2-1V8l-1-2-5-2V2Z"/><path fill="#140B05" d="m185 283 3 1 1 2c1 3 3 4 6 6l-7-2v-2h-5l3-1-1-4Z"/><path fill="#341D0B" d="M21 138h1v5h6v1l-8 2-3-2v-2h4v-4Z"/><path fill="#B09158" d="m43 97 5 3-4 6v-6l-5 1 4-4Z"/><path fill="#312311" d="m157 93 6 1h3l3 1v2c-5 0-9 0-14-2l2-2Z"/><path fill="#B2914A" d="M55 86h5v3c-4 3-4 3-7 3l2-6Z"/><path fill="#6D5120" d="m129 78 5 5 2 2 1 3h-3v-2h-2v-2h-2v-4l-2-1 1-1Z"/><path fill="#322621" d="m157 246-1 1 2 1v11h-1v-10h-2l-3-1-1-2h6Z"/><path fill="#5A4B34" d="M23 214c5 3 6 7 8 13l-8-10v-3Z"/><path fill="#9F8A5A" d="M115 74h5l-9 3-2 1h-2l-1-2c3-2 5-2 9-2Z"/><path fill="#A68656" d="M144 72h8v2h-12l4-2Z"/><path fill="#2B1C16" d="m134 265 5 9-4-1v-2l-1-3-2-1 2-2Z"/><path fill="#A0874E" d="m158 75 2 1h2l1 4-4-1-3-1-6-3h8Z"/><path fill="#5B4524" d="m234 280 2 1-1 4v3l-3 5c0-5 0-8 2-13Z"/><path fill="#504021" d="m217 160 5 7 1 2 1 2-2 1-2-4h-2l-1-8Z"/><path fill="#B89353" d="m34 112 3 1-1 4-5 1 3-6Z"/><path fill="#AB8F56" d="m69 74 5 1-1 4-8-1 4-4Z"/><path fill="#604132" d="M112 33h8l1 4-2 1v-2l-7-1v-2Z"/><path fill="#574A1D" d="m166 275 10 5v1h-7v-2l-3-4Z"/><path fill="#5C3E28" d="m166 248 3 1-2 9c-2-2-2-2-2-5l1-5Z"/><path fill="#684F2C" d="M32 203h2c2 2 2 4 2 7l-3 4-1-11Z"/><path fill="#9B8555" d="m57 178 7 10-4-1v-3h-2v-2l-2-1 1-3Z"/><path fill="#564526" d="m210 149 7 10-3 1v-4h-2v-2h-2v-5Z"/><path fill="#A98D57" d="M39 130h3v2l6 2v2l-11-3 2-3Z"/><path fill="#B8965B" d="m35 120 1 4h-2v4h-4l2-6h2l1-2Z"/><path fill="#CAB786" d="m41 110 1 2h2v5l2 1-2 2-1-2-4-4 2-4Z"/><path fill="#634F36" d="m185 82 4 3v9l-4-7 2-1-2-4Z"/><path fill="#B6975D" d="m135 78 5 4-1 4-2-2-4-1 1-2 2 1-1-4Z"/><path fill="#251504" d="m197 276 6 7-1 4-2-4-2-2-1-5Z"/><path fill="#988258" d="M117 244c3 3 3 6 3 10-3-2-3-2-4-6v-3l1-1Z"/><path fill="#B3945D" d="M106 209h6v3h-8l2-3Z"/><path fill="#998664" d="M198 139h2l-3 4-1 1-2 2h-2c2-7 2-7 6-7Z"/><path fill="#947949" d="m38 101 1 2-2 3-1 6h-2l-1-5 2-3h2l1-3Z"/><path fill="#68522B" d="m123 66 2 1 1 5-5 1-1-4 3-1v-2Z"/><path fill="#89734E" d="M127 59h9v1h-7v2h2l-1 4c-3-4-3-4-3-7Z"/><path fill="#A28654" d="M184 239h2l1 8-3 1v-9Z"/><path fill="#291C0A" d="m128 230 2 4v6h-3l1-10Z"/><path fill="#725617" d="m135 232 1 3h2l3 1 1 2h-7v-6Z"/><path fill="#5B3C29" d="M125 202h4l-1 6-4-1 1-5Z"/><path fill="#231608" d="m64 188 10 7-1 3-4-4-3-3-2-3Z"/><path fill="#58451E" d="m127 73 2 3-1 3-2-2c-2-2-2-2-6-2v-2h7Z"/><path fill="#24180E" d="M150 62c9 0 9 0 12 2v2l-12-3v-1Z"/><path fill="#785406" d="m153 188 2 2-1 2h-2v2l-5 2 6-8Z"/><path fill="#534728" d="m198 280 4 8-4-1v-7Z"/><path fill="#4D3D21" d="m234 203 3 8v4h-3v-12Z"/><path fill="#1A0A01" d="m139 197 1 2h7c-3 3-5 3-9 3l1-5Z"/><path fill="#554225" d="m30 112 1 2-6 8c0-4 2-7 5-10Z"/><path fill="#623E2F" d="m111 28 7 1v2h-7v-3Z"/><path fill="#514B2D" d="m110 2 1 2 2 1-3 1-1 4-1-3c0-3 0-3 2-5Z"/><path fill="#AB8A5D" d="M163 195h1l-1 9h-2l2-9Z"/><path fill="#211508" d="M154 193h1v5l-8 1 2-2 5-4Z"/><path fill="#211208" d="m13 144 1 3 6-2-2 2-4 5-1-8Z"/><path fill="#BA924E" d="m169 72 1 2h5l1 3-6-1-1-4Z"/><path fill="#A28D5F" d="m164 67 9 4v1l-7-1-2-2v-2Z"/><path fill="#9B7C44" d="m119 46 2 4-1 2h-2l-1 4-1-6h3v-4Z"/><path fill="#694133" d="M156 204h2l1 9-3-3v-6Z"/><path fill="#262023" d="m154 197-1 5-4-1 1-3 4-1Z"/><path fill="#BB9240" d="M148 192v3l-6 2 1-4 5-1Z"/><path fill="#B09547" d="M56 182h2v2h2l-1 4-3-1v-5Z"/><path fill="#9B8656" d="m175 169-2 7-3-2 5-5Z"/><path fill="#AE9359" d="m22 145 4 1-1 4-3 1v-6Z"/><path fill="#624F28" d="M24 122v6l-1 2v2l-1-2-2-1 4-7Z"/><path fill="#A68753" d="m51 87 4 2-3 3-4-2 3-3Z"/><path fill="#B89454" d="m170 78 3 1-1 6-3-6 1-1Z"/><path fill="#5B3C2D" d="M112 24h5v3h-6l1-3Z"/><path fill="#50392A" d="M112 17h2l1 5h-4l1-5Z"/><path d="m234 146 2 1Z"/></svg>